<svg width="438" height="242" viewBox="0 0 438 242" fill="none" xmlns="http://www.w3.org/2000/svg">
<g filter="url(#filter0_d_129_106)">
<rect x="4" y="3" width="430" height="234" rx="10" fill="white" shape-rendering="crispEdges"/>
<path d="M35.07 47.18C34.818 47.18 34.614 47.108 34.458 46.964C34.314 46.808 34.242 46.598 34.242 46.334V38.45C34.242 37.13 34.608 36.098 35.34 35.354C36.084 34.598 37.11 34.22 38.418 34.22C39.138 34.22 39.804 34.4 40.416 34.76C41.028 35.12 41.508 35.612 41.856 36.236C42.204 35.6 42.678 35.108 43.278 34.76C43.878 34.4 44.544 34.22 45.276 34.22C46.584 34.22 47.61 34.598 48.354 35.354C49.098 36.098 49.47 37.13 49.47 38.45V46.334C49.47 46.598 49.392 46.808 49.236 46.964C49.08 47.108 48.87 47.18 48.606 47.18C48.342 47.18 48.138 47.108 47.994 46.964C47.85 46.808 47.778 46.598 47.778 46.334V38.45C47.778 37.502 47.58 36.794 47.184 36.326C46.788 35.858 46.134 35.624 45.222 35.624C44.43 35.624 43.806 35.876 43.35 36.38C42.906 36.872 42.684 37.562 42.684 38.45V46.334C42.684 46.598 42.606 46.808 42.45 46.964C42.306 47.108 42.108 47.18 41.856 47.18C41.592 47.18 41.388 47.108 41.244 46.964C41.1 46.808 41.028 46.598 41.028 46.334V38.45C41.028 37.586 40.794 36.902 40.326 36.398C39.87 35.882 39.252 35.624 38.472 35.624C37.572 35.624 36.924 35.864 36.528 36.344C36.132 36.812 35.934 37.514 35.934 38.45V46.334C35.934 46.598 35.856 46.808 35.7 46.964C35.544 47.108 35.334 47.18 35.07 47.18ZM55.2368 47.18C54.0728 47.18 53.1488 46.916 52.4648 46.388C51.7928 45.86 51.4568 45.146 51.4568 44.246C51.4568 43.346 51.8108 42.632 52.5188 42.104C53.2388 41.576 54.2168 41.312 55.4528 41.312C56.1008 41.312 56.6768 41.396 57.1808 41.564C57.6968 41.732 58.1108 41.96 58.4228 42.248V41.348C58.4228 40.7 58.2128 40.208 57.7928 39.872C57.3848 39.524 56.7788 39.35 55.9748 39.35C54.9068 39.35 53.9828 39.596 53.2028 40.088C52.9748 40.22 52.7768 40.286 52.6088 40.286C52.4528 40.286 52.2968 40.22 52.1408 40.088C52.0088 39.956 51.9428 39.8 51.9428 39.62C51.9428 39.416 52.0448 39.23 52.2488 39.062C52.6808 38.738 53.2268 38.48 53.8868 38.288C54.5468 38.096 55.2368 38 55.9568 38C57.2648 38 58.2848 38.3 59.0168 38.9C59.7488 39.488 60.1148 40.316 60.1148 41.384V46.37C60.1148 46.634 60.0428 46.838 59.8988 46.982C59.7668 47.114 59.5688 47.18 59.3048 47.18C59.0408 47.18 58.8368 47.114 58.6928 46.982C58.5488 46.838 58.4768 46.646 58.4768 46.406V45.902C57.7568 46.754 56.6768 47.18 55.2368 47.18ZM55.5248 45.902C56.4008 45.902 57.1028 45.746 57.6308 45.434C58.1708 45.11 58.4408 44.69 58.4408 44.174C58.4408 43.67 58.1828 43.28 57.6668 43.004C57.1628 42.716 56.4608 42.572 55.5608 42.572C54.7808 42.572 54.1808 42.716 53.7608 43.004C53.3408 43.292 53.1308 43.706 53.1308 44.246C53.1308 44.774 53.3348 45.182 53.7428 45.47C54.1628 45.758 54.7568 45.902 55.5248 45.902ZM63.0866 47.18C62.8226 47.18 62.6186 47.108 62.4746 46.964C62.3426 46.808 62.2766 46.598 62.2766 46.334V38.846C62.2766 38.282 62.5466 38 63.0866 38C63.3386 38 63.5366 38.078 63.6806 38.234C63.8246 38.378 63.8966 38.582 63.8966 38.846V39.764C64.6886 38.708 65.7626 38.18 67.1186 38.18H67.5506C67.8386 38.18 68.0606 38.24 68.2166 38.36C68.3726 38.48 68.4506 38.654 68.4506 38.882C68.4506 39.098 68.3666 39.266 68.1986 39.386C68.0426 39.506 67.8266 39.566 67.5506 39.566H67.0106C66.0626 39.566 65.3126 39.848 64.7606 40.412C64.2086 40.964 63.9326 41.72 63.9326 42.68V46.334C63.9326 46.598 63.8546 46.808 63.6986 46.964C63.5546 47.108 63.3506 47.18 63.0866 47.18ZM71.6218 47C70.8538 47 70.2658 46.844 69.8578 46.532C69.4618 46.208 69.2638 45.746 69.2638 45.146C69.2638 44.342 69.6778 43.736 70.5058 43.328L75.4378 40.862C75.6658 40.742 75.8218 40.628 75.9058 40.52C75.9898 40.412 76.0318 40.274 76.0318 40.106C76.0318 39.938 75.9658 39.806 75.8338 39.71C75.7018 39.614 75.5218 39.566 75.2938 39.566H70.3978C69.7258 39.566 69.3898 39.338 69.3898 38.882C69.3898 38.414 69.7258 38.18 70.3978 38.18H75.3118C76.0558 38.18 76.6318 38.342 77.0398 38.666C77.4598 38.99 77.6698 39.446 77.6698 40.034C77.6698 40.898 77.2558 41.528 76.4278 41.924L71.4958 44.354C71.0638 44.57 70.8478 44.822 70.8478 45.11C70.8478 45.266 70.9078 45.392 71.0278 45.488C71.1598 45.572 71.3338 45.614 71.5498 45.614H76.8058C77.4778 45.614 77.8138 45.842 77.8138 46.298C77.8138 46.766 77.4778 47 76.8058 47H71.6218ZM83.7617 47.18C82.7177 47.18 81.8117 46.976 81.0437 46.568C80.2757 46.16 79.6877 45.608 79.2797 44.912C78.8837 44.216 78.6857 43.442 78.6857 42.59C78.6857 41.738 78.8837 40.964 79.2797 40.268C79.6877 39.572 80.2757 39.02 81.0437 38.612C81.8117 38.204 82.7177 38 83.7617 38C84.8057 38 85.7057 38.204 86.4617 38.612C87.2297 39.02 87.8117 39.572 88.2077 40.268C88.6157 40.964 88.8197 41.738 88.8197 42.59C88.8197 43.442 88.6157 44.216 88.2077 44.912C87.8117 45.608 87.2297 46.16 86.4617 46.568C85.7057 46.976 84.8057 47.18 83.7617 47.18ZM83.7617 45.794C84.7937 45.794 85.6157 45.512 86.2277 44.948C86.8397 44.384 87.1457 43.598 87.1457 42.59C87.1457 41.582 86.8397 40.796 86.2277 40.232C85.6157 39.668 84.7937 39.386 83.7617 39.386C82.7297 39.386 81.9017 39.668 81.2777 40.232C80.6657 40.796 80.3597 41.582 80.3597 42.59C80.3597 43.598 80.6657 44.384 81.2777 44.948C81.9017 45.512 82.7297 45.794 83.7617 45.794ZM96.0744 47C95.8224 47 95.6184 46.928 95.4624 46.784C95.3184 46.64 95.2464 46.466 95.2464 46.262C95.2464 45.974 95.3784 45.722 95.6424 45.506L101.942 40.268C102.434 39.872 102.776 39.512 102.968 39.188C103.16 38.852 103.256 38.414 103.256 37.874C103.256 37.166 103.01 36.614 102.518 36.218C102.026 35.822 101.336 35.624 100.448 35.624C99.6804 35.624 98.9844 35.762 98.3604 36.038C97.7484 36.302 97.2444 36.692 96.8484 37.208C96.6684 37.46 96.4524 37.586 96.2004 37.586C96.0324 37.586 95.8764 37.532 95.7324 37.424C95.5164 37.28 95.4084 37.082 95.4084 36.83C95.4084 36.626 95.4864 36.44 95.6424 36.272C96.1704 35.612 96.8544 35.108 97.6944 34.76C98.5344 34.4 99.4524 34.22 100.448 34.22C101.84 34.22 102.938 34.55 103.742 35.21C104.558 35.858 104.966 36.746 104.966 37.874C104.966 38.522 104.798 39.122 104.462 39.674C104.138 40.226 103.586 40.82 102.806 41.456L97.7844 45.632H104.282C104.81 45.632 105.074 45.86 105.074 46.316C105.074 46.772 104.81 47 104.282 47H96.0744ZM112.142 47.18C111.026 47.18 110.06 46.922 109.244 46.406C108.44 45.89 107.822 45.146 107.39 44.174C106.958 43.202 106.742 42.044 106.742 40.7C106.742 39.356 106.958 38.198 107.39 37.226C107.822 36.254 108.44 35.51 109.244 34.994C110.06 34.478 111.026 34.22 112.142 34.22C113.258 34.22 114.218 34.478 115.022 34.994C115.838 35.51 116.462 36.254 116.894 37.226C117.326 38.198 117.542 39.356 117.542 40.7C117.542 42.044 117.326 43.202 116.894 44.174C116.462 45.146 115.838 45.89 115.022 46.406C114.218 46.922 113.258 47.18 112.142 47.18ZM112.142 45.776C113.318 45.776 114.23 45.332 114.878 44.444C115.526 43.556 115.85 42.308 115.85 40.7C115.85 39.092 115.526 37.844 114.878 36.956C114.23 36.068 113.318 35.624 112.142 35.624C110.966 35.624 110.054 36.068 109.406 36.956C108.77 37.844 108.452 39.092 108.452 40.7C108.452 42.308 108.77 43.556 109.406 44.444C110.054 45.332 110.966 45.776 112.142 45.776ZM120.086 47C119.834 47 119.63 46.928 119.474 46.784C119.33 46.64 119.258 46.466 119.258 46.262C119.258 45.974 119.39 45.722 119.654 45.506L125.954 40.268C126.446 39.872 126.788 39.512 126.98 39.188C127.172 38.852 127.268 38.414 127.268 37.874C127.268 37.166 127.022 36.614 126.53 36.218C126.038 35.822 125.348 35.624 124.46 35.624C123.692 35.624 122.996 35.762 122.372 36.038C121.76 36.302 121.256 36.692 120.86 37.208C120.68 37.46 120.464 37.586 120.212 37.586C120.044 37.586 119.888 37.532 119.744 37.424C119.528 37.28 119.42 37.082 119.42 36.83C119.42 36.626 119.498 36.44 119.654 36.272C120.182 35.612 120.866 35.108 121.706 34.76C122.546 34.4 123.464 34.22 124.46 34.22C125.852 34.22 126.95 34.55 127.754 35.21C128.57 35.858 128.978 36.746 128.978 37.874C128.978 38.522 128.81 39.122 128.474 39.674C128.15 40.226 127.598 40.82 126.818 41.456L121.796 45.632H128.294C128.822 45.632 129.086 45.86 129.086 46.316C129.086 46.772 128.822 47 128.294 47H120.086ZM135.794 47.18C134.81 47.18 133.898 46.994 133.058 46.622C132.218 46.25 131.522 45.728 130.97 45.056C130.826 44.876 130.754 44.69 130.754 44.498C130.754 44.258 130.868 44.06 131.096 43.904C131.252 43.808 131.402 43.76 131.546 43.76C131.81 43.76 132.032 43.88 132.212 44.12C132.608 44.66 133.118 45.074 133.742 45.362C134.366 45.638 135.044 45.776 135.776 45.776C136.892 45.776 137.756 45.5 138.368 44.948C138.98 44.384 139.286 43.58 139.286 42.536C139.286 41.564 138.992 40.82 138.404 40.304C137.828 39.776 137.03 39.512 136.01 39.512C135.422 39.512 134.876 39.62 134.372 39.836C133.868 40.04 133.46 40.316 133.148 40.664C132.824 41.048 132.494 41.24 132.158 41.24C132.074 41.24 131.978 41.222 131.87 41.186C131.666 41.126 131.51 41.024 131.402 40.88C131.294 40.724 131.258 40.55 131.294 40.358L131.996 35.678C132.056 35.282 132.23 34.97 132.518 34.742C132.806 34.514 133.19 34.4 133.67 34.4H139.556C140.12 34.4 140.402 34.634 140.402 35.102C140.402 35.318 140.324 35.486 140.168 35.606C140.012 35.714 139.808 35.768 139.556 35.768H134.156C133.952 35.768 133.796 35.816 133.688 35.912C133.592 35.996 133.526 36.146 133.49 36.362L133.076 39.17C133.532 38.822 134.03 38.558 134.57 38.378C135.122 38.198 135.692 38.108 136.28 38.108C137.204 38.108 138.02 38.288 138.728 38.648C139.448 38.996 140 39.506 140.384 40.178C140.78 40.838 140.978 41.618 140.978 42.518C140.978 43.454 140.774 44.276 140.366 44.984C139.958 45.68 139.364 46.22 138.584 46.604C137.804 46.988 136.874 47.18 135.794 47.18Z" fill="#3D2C00"/>
<path d="M421.769 34.7308C422.194 34.7308 422.538 34.3864 422.538 33.9616C422.538 33.5367 422.194 33.1923 421.769 33.1923C421.344 33.1923 421 33.5367 421 33.9616C421 34.3864 421.344 34.7308 421.769 34.7308Z" stroke="#A48C4E" stroke-width="2" stroke-linecap="round" stroke-linejoin="round"/>
<path d="M421.769 41.2692C422.194 41.2692 422.538 40.9248 422.538 40.5C422.538 40.0752 422.194 39.7308 421.769 39.7308C421.344 39.7308 421 40.0752 421 40.5C421 40.9248 421.344 41.2692 421.769 41.2692Z" stroke="#A48C4E" stroke-width="2" stroke-linecap="round" stroke-linejoin="round"/>
<path d="M421.769 47.8077C422.194 47.8077 422.538 47.4632 422.538 47.0385C422.538 46.6137 422.194 46.2692 421.769 46.2692C421.344 46.2692 421 46.6137 421 47.0385C421 47.4632 421.344 47.8077 421.769 47.8077Z" stroke="#A48C4E" stroke-width="2" stroke-linecap="round" stroke-linejoin="round"/>
<path d="M54.24 101C53.48 101 52.89 100.8 52.47 100.4C52.05 100 51.84 99.44 51.84 98.72V92.72C51.84 92.02 52.04 91.475 52.44 91.085C52.85 90.695 53.415 90.5 54.135 90.5H56.235C57.385 90.5 58.38 90.71 59.22 91.13C60.06 91.55 60.7 92.155 61.14 92.945C61.59 93.735 61.815 94.675 61.815 95.765C61.815 96.855 61.59 97.795 61.14 98.585C60.7 99.365 60.06 99.965 59.22 100.385C58.39 100.795 57.395 101 56.235 101H54.24ZM56.085 99.455C57.335 99.455 58.265 99.155 58.875 98.555C59.485 97.945 59.79 97.015 59.79 95.765C59.79 94.515 59.48 93.585 58.86 92.975C58.25 92.355 57.325 92.045 56.085 92.045H54.48C54.28 92.045 54.12 92.11 54 92.24C53.89 92.37 53.835 92.55 53.835 92.78V98.72C53.835 98.95 53.89 99.13 54 99.26C54.12 99.39 54.28 99.455 54.48 99.455H56.085Z" fill="#F56F63"/>
<path d="M107.24 101C106.48 101 105.89 100.8 105.47 100.4C105.05 100 104.84 99.44 104.84 98.72V91.25C104.84 90.97 104.93 90.75 105.11 90.59C105.29 90.43 105.53 90.35 105.83 90.35C106.13 90.35 106.37 90.435 106.55 90.605C106.74 90.765 106.835 90.98 106.835 91.25V98.72C106.835 98.95 106.89 99.13 107 99.26C107.12 99.39 107.28 99.455 107.48 99.455H112.28C112.58 99.455 112.81 99.525 112.97 99.665C113.13 99.795 113.21 99.985 113.21 100.235C113.21 100.475 113.125 100.665 112.955 100.805C112.795 100.935 112.57 101 112.28 101H107.24Z" fill="#F56F63"/>
<path d="M156.83 101.15C156.53 101.15 156.29 101.07 156.11 100.91C155.93 100.75 155.84 100.53 155.84 100.25V94.07C155.84 92.91 156.17 92 156.83 91.34C157.49 90.68 158.4 90.35 159.56 90.35C160.12 90.35 160.645 90.49 161.135 90.77C161.635 91.04 162.065 91.43 162.425 91.94C162.775 91.42 163.195 91.025 163.685 90.755C164.185 90.485 164.725 90.35 165.305 90.35C166.465 90.35 167.375 90.68 168.035 91.34C168.695 92 169.025 92.91 169.025 94.07V100.25C169.025 100.52 168.93 100.74 168.74 100.91C168.56 101.07 168.32 101.15 168.02 101.15C167.72 101.15 167.48 101.07 167.3 100.91C167.12 100.75 167.03 100.53 167.03 100.25V94.07C167.03 93.31 166.89 92.765 166.61 92.435C166.33 92.095 165.87 91.925 165.23 91.925C164.65 91.925 164.2 92.11 163.88 92.48C163.57 92.85 163.415 93.38 163.415 94.07V100.25C163.415 100.53 163.325 100.75 163.145 100.91C162.965 101.07 162.725 101.15 162.425 101.15C162.125 101.15 161.885 101.07 161.705 100.91C161.535 100.75 161.45 100.53 161.45 100.25V94.07C161.45 93.4 161.29 92.875 160.97 92.495C160.65 92.115 160.205 91.925 159.635 91.925C158.995 91.925 158.535 92.095 158.255 92.435C157.975 92.765 157.835 93.31 157.835 94.07V100.25C157.835 100.52 157.74 100.74 157.55 100.91C157.37 101.07 157.13 101.15 156.83 101.15Z" fill="#F56F63"/>
<path d="M212.708 100.14C212.428 100.14 212.204 100.065 212.036 99.916C211.868 99.7667 211.784 99.5613 211.784 99.3V93.532C211.784 92.4493 212.092 91.6 212.708 90.984C213.324 90.368 214.173 90.06 215.256 90.06C215.779 90.06 216.269 90.1907 216.726 90.452C217.193 90.704 217.594 91.068 217.93 91.544C218.257 91.0587 218.649 90.69 219.106 90.438C219.573 90.186 220.077 90.06 220.618 90.06C221.701 90.06 222.55 90.368 223.166 90.984C223.782 91.6 224.09 92.4493 224.09 93.532V99.3C224.09 99.552 224.001 99.7573 223.824 99.916C223.656 100.065 223.432 100.14 223.152 100.14C222.872 100.14 222.648 100.065 222.48 99.916C222.312 99.7667 222.228 99.5613 222.228 99.3V93.532C222.228 92.8227 222.097 92.314 221.836 92.006C221.575 91.6887 221.145 91.53 220.548 91.53C220.007 91.53 219.587 91.7027 219.288 92.048C218.999 92.3933 218.854 92.888 218.854 93.532V99.3C218.854 99.5613 218.77 99.7667 218.602 99.916C218.434 100.065 218.21 100.14 217.93 100.14C217.65 100.14 217.426 100.065 217.258 99.916C217.099 99.7667 217.02 99.5613 217.02 99.3V93.532C217.02 92.9067 216.871 92.4167 216.572 92.062C216.273 91.7073 215.858 91.53 215.326 91.53C214.729 91.53 214.299 91.6887 214.038 92.006C213.777 92.314 213.646 92.8227 213.646 93.532V99.3C213.646 99.552 213.557 99.7573 213.38 99.916C213.212 100.065 212.988 100.14 212.708 100.14Z" fill="#F56F63"/>
<path d="M270.5 101.15C269.7 101.15 268.955 101 268.265 100.7C267.575 100.39 267.015 99.96 266.585 99.41C266.455 99.24 266.39 99.065 266.39 98.885C266.39 98.645 266.505 98.425 266.735 98.225C266.895 98.095 267.08 98.03 267.29 98.03C267.59 98.03 267.855 98.18 268.085 98.48C268.335 98.82 268.67 99.085 269.09 99.275C269.52 99.465 269.99 99.56 270.5 99.56C271.11 99.56 271.56 99.39 271.85 99.05C272.14 98.71 272.285 98.19 272.285 97.49V91.25C272.285 90.97 272.375 90.75 272.555 90.59C272.735 90.43 272.975 90.35 273.275 90.35C273.575 90.35 273.815 90.435 273.995 90.605C274.185 90.765 274.28 90.98 274.28 91.25V97.43C274.28 98.18 274.125 98.835 273.815 99.395C273.505 99.955 273.065 100.39 272.495 100.7C271.925 101 271.26 101.15 270.5 101.15Z" fill="#F56F63"/>
<path d="M322.79 101.15C322.09 101.15 321.51 100.91 321.05 100.43C320.59 99.94 320.185 99.135 319.835 98.015L317.75 91.385C317.71 91.265 317.69 91.14 317.69 91.01C317.69 90.57 318 90.35 318.62 90.35C318.93 90.35 319.165 90.41 319.325 90.53C319.495 90.65 319.62 90.845 319.7 91.115L321.77 97.865C321.96 98.475 322.135 98.915 322.295 99.185C322.455 99.455 322.62 99.59 322.79 99.59C322.96 99.59 323.125 99.455 323.285 99.185C323.445 98.915 323.62 98.475 323.81 97.865L325.88 91.115C325.96 90.845 326.08 90.65 326.24 90.53C326.41 90.41 326.65 90.35 326.96 90.35C327.58 90.35 327.89 90.57 327.89 91.01C327.89 91.14 327.87 91.265 327.83 91.385L325.745 98.015C325.395 99.135 324.99 99.94 324.53 100.43C324.07 100.91 323.49 101.15 322.79 101.15Z" fill="#F56F63"/>
<path d="M375.91 101.15C374.93 101.15 374.01 100.99 373.15 100.67C372.29 100.34 371.545 99.87 370.915 99.26C370.765 99.11 370.69 98.94 370.69 98.75C370.69 98.53 370.79 98.32 370.99 98.12C371.15 97.96 371.325 97.88 371.515 97.88C371.715 97.88 371.955 97.995 372.235 98.225C372.705 98.655 373.26 98.99 373.9 99.23C374.55 99.46 375.22 99.575 375.91 99.575C376.57 99.575 377.085 99.465 377.455 99.245C377.825 99.015 378.01 98.695 378.01 98.285C378.01 97.855 377.81 97.51 377.41 97.25C377.01 96.98 376.33 96.74 375.37 96.53C373.86 96.2 372.76 95.765 372.07 95.225C371.39 94.685 371.05 93.99 371.05 93.14C371.05 92.6 371.23 92.12 371.59 91.7C371.95 91.27 372.45 90.94 373.09 90.71C373.74 90.47 374.48 90.35 375.31 90.35C376.24 90.35 377.065 90.505 377.785 90.815C378.515 91.115 379.07 91.54 379.45 92.09C379.58 92.3 379.645 92.48 379.645 92.63C379.635 92.88 379.51 93.095 379.27 93.275C379.14 93.365 378.99 93.41 378.82 93.41C378.51 93.41 378.255 93.29 378.055 93.05C377.765 92.7 377.375 92.425 376.885 92.225C376.405 92.025 375.88 91.925 375.31 91.925C374.6 91.925 374.045 92.035 373.645 92.255C373.255 92.465 373.06 92.76 373.06 93.14C373.06 93.52 373.25 93.835 373.63 94.085C374.02 94.325 374.69 94.555 375.64 94.775C376.69 95.025 377.535 95.31 378.175 95.63C378.815 95.94 379.28 96.31 379.57 96.74C379.87 97.17 380.02 97.685 380.02 98.285C380.02 98.855 379.85 99.36 379.51 99.8C379.17 100.23 378.69 100.565 378.07 100.805C377.45 101.035 376.73 101.15 375.91 101.15Z" fill="#F56F63"/>
<path d="M58.8 154.15C58 154.15 57.265 154 56.595 153.7C55.925 153.4 55.36 152.97 54.9 152.41C54.8 152.28 54.75 152.155 54.75 152.035C54.75 151.875 54.825 151.745 54.975 151.645C55.065 151.585 55.17 151.555 55.29 151.555C55.49 151.555 55.64 151.63 55.74 151.78C56.08 152.25 56.515 152.605 57.045 152.845C57.585 153.075 58.165 153.19 58.785 153.19C59.745 153.19 60.49 152.935 61.02 152.425C61.56 151.915 61.83 151.19 61.83 150.25C61.83 149.4 61.57 148.745 61.05 148.285C60.53 147.815 59.84 147.58 58.98 147.58C58.48 147.58 58.01 147.67 57.57 147.85C57.14 148.03 56.79 148.275 56.52 148.585C56.27 148.865 56.035 149.005 55.815 149.005C55.615 149.005 55.455 148.95 55.335 148.84C55.215 148.72 55.17 148.57 55.2 148.39L55.785 144.475C55.835 144.175 55.965 143.94 56.175 143.77C56.395 143.59 56.685 143.5 57.045 143.5H61.89C62.28 143.5 62.475 143.66 62.475 143.98C62.475 144.13 62.42 144.245 62.31 144.325C62.21 144.395 62.07 144.43 61.89 144.43H57.33C57.15 144.43 57.02 144.47 56.94 144.55C56.86 144.63 56.805 144.76 56.775 144.94L56.385 147.565C56.765 147.255 57.19 147.02 57.66 146.86C58.14 146.69 58.635 146.605 59.145 146.605C59.875 146.605 60.53 146.75 61.11 147.04C61.69 147.33 62.14 147.75 62.46 148.3C62.79 148.84 62.955 149.485 62.955 150.235C62.955 151.015 62.79 151.7 62.46 152.29C62.13 152.88 61.65 153.34 61.02 153.67C60.4 153.99 59.66 154.15 58.8 154.15Z" fill="#3D2C00"/>
<path d="M110.1 154.15C108.71 154.15 107.635 153.675 106.875 152.725C106.115 151.775 105.735 150.445 105.735 148.735C105.735 147.625 105.91 146.665 106.26 145.855C106.61 145.045 107.115 144.425 107.775 143.995C108.445 143.565 109.235 143.35 110.145 143.35C111.505 143.35 112.65 143.745 113.58 144.535C113.7 144.635 113.76 144.76 113.76 144.91C113.76 145.07 113.69 145.205 113.55 145.315C113.47 145.395 113.37 145.435 113.25 145.435C113.1 145.435 112.945 145.37 112.785 145.24C112.355 144.91 111.94 144.675 111.54 144.535C111.15 144.385 110.685 144.31 110.145 144.31C109.075 144.31 108.255 144.705 107.685 145.495C107.125 146.285 106.845 147.375 106.845 148.765L106.875 148.78C107.205 148.2 107.645 147.74 108.195 147.4C108.755 147.05 109.415 146.875 110.175 146.875C110.985 146.875 111.675 147.03 112.245 147.34C112.825 147.65 113.265 148.08 113.565 148.63C113.865 149.17 114.015 149.785 114.015 150.475C114.015 151.185 113.855 151.82 113.535 152.38C113.225 152.94 112.775 153.375 112.185 153.685C111.595 153.995 110.9 154.15 110.1 154.15ZM110.1 153.19C110.95 153.19 111.625 152.95 112.125 152.47C112.635 151.98 112.89 151.33 112.89 150.52C112.89 149.7 112.635 149.05 112.125 148.57C111.625 148.09 110.95 147.85 110.1 147.85C109.57 147.85 109.08 147.97 108.63 148.21C108.18 148.45 107.82 148.78 107.55 149.2C107.29 149.62 107.16 150.08 107.16 150.58C107.16 151.09 107.29 151.545 107.55 151.945C107.81 152.335 108.165 152.64 108.615 152.86C109.065 153.08 109.56 153.19 110.1 153.19Z" fill="black"/>
<path d="M158.31 154.075C158.14 153.975 158.055 153.84 158.055 153.67C158.055 153.55 158.095 153.42 158.175 153.28L162.975 144.43H157.185C157.005 144.43 156.86 144.395 156.75 144.325C156.65 144.245 156.6 144.13 156.6 143.98C156.6 143.66 156.795 143.5 157.185 143.5H163.575C163.765 143.5 163.91 143.55 164.01 143.65C164.12 143.75 164.175 143.885 164.175 144.055C164.175 144.255 164.12 144.455 164.01 144.655L159.09 153.85C158.98 154.05 158.82 154.15 158.61 154.15C158.49 154.15 158.39 154.125 158.31 154.075Z" fill="#3D2C00"/>
<path d="M210.92 154.15C210.11 154.15 209.39 154.03 208.76 153.79C208.13 153.54 207.635 153.19 207.275 152.74C206.925 152.28 206.75 151.735 206.75 151.105C206.75 150.495 206.945 149.965 207.335 149.515C207.735 149.065 208.275 148.725 208.955 148.495V148.465C208.375 148.255 207.925 147.955 207.605 147.565C207.295 147.165 207.14 146.705 207.14 146.185C207.14 145.345 207.465 144.665 208.115 144.145C208.765 143.615 209.7 143.35 210.92 143.35C212.14 143.35 213.075 143.61 213.725 144.13C214.375 144.65 214.7 145.335 214.7 146.185C214.7 146.695 214.54 147.15 214.22 147.55C213.91 147.95 213.465 148.255 212.885 148.465V148.495C213.565 148.725 214.1 149.065 214.49 149.515C214.89 149.965 215.09 150.495 215.09 151.105C215.09 151.735 214.91 152.28 214.55 152.74C214.2 153.19 213.71 153.54 213.08 153.79C212.45 154.03 211.73 154.15 210.92 154.15ZM210.92 148.045C211.73 148.045 212.375 147.875 212.855 147.535C213.335 147.195 213.575 146.745 213.575 146.185C213.575 145.605 213.345 145.15 212.885 144.82C212.425 144.48 211.77 144.31 210.92 144.31C210.08 144.31 209.425 144.475 208.955 144.805C208.495 145.135 208.265 145.595 208.265 146.185C208.265 146.745 208.505 147.195 208.985 147.535C209.465 147.875 210.11 148.045 210.92 148.045ZM210.92 153.19C211.86 153.19 212.6 153.01 213.14 152.65C213.69 152.28 213.965 151.765 213.965 151.105C213.965 150.425 213.69 149.9 213.14 149.53C212.6 149.15 211.86 148.96 210.92 148.96C209.99 148.96 209.25 149.15 208.7 149.53C208.15 149.91 207.875 150.435 207.875 151.105C207.875 151.765 208.145 152.28 208.685 152.65C209.235 153.01 209.98 153.19 210.92 153.19Z" fill="#3D2C00"/>
<path d="M261.83 154.15C260.5 154.15 259.365 153.745 258.425 152.935C258.295 152.815 258.23 152.685 258.23 152.545C258.23 152.415 258.295 152.29 258.425 152.17C258.535 152.08 258.635 152.035 258.725 152.035C258.845 152.035 259 152.105 259.19 152.245C259.62 152.565 260.035 152.805 260.435 152.965C260.845 153.115 261.31 153.19 261.83 153.19C262.87 153.19 263.645 152.815 264.155 152.065C264.675 151.315 264.935 150.21 264.935 148.75L264.905 148.735C264.595 149.345 264.165 149.82 263.615 150.16C263.075 150.49 262.425 150.655 261.665 150.655C260.865 150.655 260.165 150.5 259.565 150.19C258.975 149.87 258.52 149.435 258.2 148.885C257.89 148.335 257.735 147.72 257.735 147.04C257.735 146.31 257.895 145.67 258.215 145.12C258.535 144.56 258.995 144.125 259.595 143.815C260.205 143.505 260.925 143.35 261.755 143.35C263.185 143.35 264.25 143.815 264.95 144.745C265.66 145.665 266.015 147.005 266.015 148.765C266.015 150.495 265.65 151.825 264.92 152.755C264.19 153.685 263.16 154.15 261.83 154.15ZM261.74 149.695C262.59 149.695 263.275 149.44 263.795 148.93C264.325 148.42 264.59 147.755 264.59 146.935C264.59 146.115 264.33 145.475 263.81 145.015C263.3 144.545 262.615 144.31 261.755 144.31C260.875 144.31 260.17 144.555 259.64 145.045C259.12 145.525 258.86 146.175 258.86 146.995C258.86 147.815 259.12 148.47 259.64 148.96C260.17 149.45 260.87 149.695 261.74 149.695Z" fill="#3D2C00"/>
<path d="M311.855 154.15C311.685 154.15 311.55 154.1 311.45 154C311.35 153.89 311.3 153.74 311.3 153.55V144.64L309.425 145.36C309.335 145.4 309.235 145.42 309.125 145.42C308.885 145.42 308.72 145.32 308.63 145.12C308.6 145.04 308.585 144.965 308.585 144.895C308.585 144.655 308.715 144.49 308.975 144.4L311.66 143.395C311.75 143.365 311.835 143.35 311.915 143.35C312.065 143.35 312.19 143.405 312.29 143.515C312.39 143.625 312.44 143.765 312.44 143.935V153.55C312.44 153.74 312.385 153.89 312.275 154C312.175 154.1 312.035 154.15 311.855 154.15ZM318.201 154.15C317.311 154.15 316.541 153.935 315.891 153.505C315.241 153.075 314.741 152.455 314.391 151.645C314.051 150.835 313.881 149.87 313.881 148.75C313.881 147.63 314.051 146.665 314.391 145.855C314.741 145.045 315.241 144.425 315.891 143.995C316.541 143.565 317.311 143.35 318.201 143.35C319.091 143.35 319.861 143.565 320.511 143.995C321.161 144.425 321.656 145.045 321.996 145.855C322.346 146.665 322.521 147.63 322.521 148.75C322.521 149.87 322.346 150.835 321.996 151.645C321.656 152.455 321.161 153.075 320.511 153.505C319.861 153.935 319.091 154.15 318.201 154.15ZM318.201 153.19C319.221 153.19 320.006 152.805 320.556 152.035C321.116 151.255 321.396 150.16 321.396 148.75C321.396 147.33 321.116 146.235 320.556 145.465C320.006 144.695 319.221 144.31 318.201 144.31C317.181 144.31 316.391 144.695 315.831 145.465C315.281 146.235 315.006 147.33 315.006 148.75C315.006 150.16 315.281 151.255 315.831 152.035C316.391 152.805 317.181 153.19 318.201 153.19Z" fill="#3D2C00"/>
<path d="M368.855 154.15C368.685 154.15 368.55 154.1 368.45 154C368.35 153.89 368.3 153.74 368.3 153.55V144.64L366.425 145.36C366.335 145.4 366.235 145.42 366.125 145.42C365.885 145.42 365.72 145.32 365.63 145.12C365.6 145.04 365.585 144.965 365.585 144.895C365.585 144.655 365.715 144.49 365.975 144.4L368.66 143.395C368.75 143.365 368.835 143.35 368.915 143.35C369.065 143.35 369.19 143.405 369.29 143.515C369.39 143.625 369.44 143.765 369.44 143.935V153.55C369.44 153.74 369.385 153.89 369.275 154C369.175 154.1 369.035 154.15 368.855 154.15ZM373.971 154.15C373.801 154.15 373.666 154.1 373.566 154C373.466 153.89 373.416 153.74 373.416 153.55V144.64L371.541 145.36C371.451 145.4 371.351 145.42 371.241 145.42C371.001 145.42 370.836 145.32 370.746 145.12C370.716 145.04 370.701 144.965 370.701 144.895C370.701 144.655 370.831 144.49 371.091 144.4L373.776 143.395C373.866 143.365 373.951 143.35 374.031 143.35C374.181 143.35 374.306 143.405 374.406 143.515C374.506 143.625 374.556 143.765 374.556 143.935V153.55C374.556 153.74 374.501 153.89 374.391 154C374.291 154.1 374.151 154.15 373.971 154.15Z" fill="#3D2C00"/>
<path d="M54.855 207.15C54.685 207.15 54.55 207.1 54.45 207C54.35 206.89 54.3 206.74 54.3 206.55V197.64L52.425 198.36C52.335 198.4 52.235 198.42 52.125 198.42C51.885 198.42 51.72 198.32 51.63 198.12C51.6 198.04 51.585 197.965 51.585 197.895C51.585 197.655 51.715 197.49 51.975 197.4L54.66 196.395C54.75 196.365 54.835 196.35 54.915 196.35C55.065 196.35 55.19 196.405 55.29 196.515C55.39 196.625 55.44 196.765 55.44 196.935V206.55C55.44 206.74 55.385 206.89 55.275 207C55.175 207.1 55.035 207.15 54.855 207.15ZM57.4514 207C57.2714 207 57.1264 206.95 57.0164 206.85C56.9164 206.75 56.8664 206.63 56.8664 206.49C56.8664 206.3 56.9514 206.135 57.1214 205.995L62.5664 201.375C62.9364 201.065 63.2014 200.765 63.3614 200.475C63.5214 200.175 63.6014 199.79 63.6014 199.32C63.6014 198.69 63.3814 198.2 62.9414 197.85C62.5014 197.49 61.8864 197.31 61.0964 197.31C60.4464 197.31 59.8514 197.43 59.3114 197.67C58.7714 197.91 58.3314 198.25 57.9914 198.69C57.8614 198.85 57.7114 198.93 57.5414 198.93C57.4314 198.93 57.3214 198.89 57.2114 198.81C57.0814 198.72 57.0164 198.595 57.0164 198.435C57.0164 198.285 57.0664 198.155 57.1664 198.045C57.6064 197.505 58.1714 197.09 58.8614 196.8C59.5514 196.5 60.2964 196.35 61.0964 196.35C61.8264 196.35 62.4664 196.475 63.0164 196.725C63.5664 196.965 63.9914 197.31 64.2914 197.76C64.5914 198.2 64.7414 198.72 64.7414 199.32C64.7414 199.87 64.6114 200.37 64.3514 200.82C64.1014 201.26 63.6814 201.73 63.0914 202.23L58.5764 206.07H64.2614C64.6314 206.07 64.8164 206.225 64.8164 206.535C64.8164 206.845 64.6314 207 64.2614 207H57.4514Z" fill="#3D2C00"/>
<path d="M106.855 207.15C106.685 207.15 106.55 207.1 106.45 207C106.35 206.89 106.3 206.74 106.3 206.55V197.64L104.425 198.36C104.335 198.4 104.235 198.42 104.125 198.42C103.885 198.42 103.72 198.32 103.63 198.12C103.6 198.04 103.585 197.965 103.585 197.895C103.585 197.655 103.715 197.49 103.975 197.4L106.66 196.395C106.75 196.365 106.835 196.35 106.915 196.35C107.065 196.35 107.19 196.405 107.29 196.515C107.39 196.625 107.44 196.765 107.44 196.935V206.55C107.44 206.74 107.385 206.89 107.275 207C107.175 207.1 107.035 207.15 106.855 207.15ZM112.961 207.15C112.161 207.15 111.416 207 110.726 206.7C110.036 206.4 109.461 205.97 109.001 205.41C108.901 205.28 108.851 205.155 108.851 205.035C108.851 204.875 108.926 204.745 109.076 204.645C109.176 204.575 109.281 204.54 109.391 204.54C109.571 204.54 109.721 204.625 109.841 204.795C110.171 205.235 110.611 205.58 111.161 205.83C111.721 206.07 112.321 206.19 112.961 206.19C113.881 206.19 114.601 206.01 115.121 205.65C115.651 205.28 115.916 204.77 115.916 204.12C115.916 203.42 115.731 202.89 115.361 202.53C115.001 202.16 114.466 201.975 113.756 201.975H112.076C111.676 201.975 111.476 201.82 111.476 201.51C111.476 201.19 111.676 201.03 112.076 201.03H113.756C114.316 201.03 114.771 200.87 115.121 200.55C115.481 200.22 115.661 199.795 115.661 199.275C115.661 198.645 115.431 198.16 114.971 197.82C114.521 197.48 113.871 197.31 113.021 197.31C112.431 197.31 111.886 197.415 111.386 197.625C110.896 197.835 110.476 198.14 110.126 198.54C109.996 198.69 109.851 198.765 109.691 198.765C109.591 198.765 109.476 198.725 109.346 198.645C109.206 198.555 109.136 198.43 109.136 198.27C109.136 198.13 109.191 198.005 109.301 197.895C109.771 197.395 110.321 197.015 110.951 196.755C111.591 196.485 112.281 196.35 113.021 196.35C114.201 196.35 115.121 196.615 115.781 197.145C116.451 197.675 116.786 198.385 116.786 199.275C116.786 199.725 116.651 200.14 116.381 200.52C116.121 200.89 115.741 201.2 115.241 201.45V201.48C115.851 201.72 116.301 202.06 116.591 202.5C116.891 202.93 117.041 203.47 117.041 204.12C117.041 204.73 116.871 205.265 116.531 205.725C116.191 206.185 115.711 206.54 115.091 206.79C114.481 207.03 113.771 207.15 112.961 207.15Z" fill="#3D2C00"/>
<path d="M158.855 207.15C158.685 207.15 158.55 207.1 158.45 207C158.35 206.89 158.3 206.74 158.3 206.55V197.64L156.425 198.36C156.335 198.4 156.235 198.42 156.125 198.42C155.885 198.42 155.72 198.32 155.63 198.12C155.6 198.04 155.585 197.965 155.585 197.895C155.585 197.655 155.715 197.49 155.975 197.4L158.66 196.395C158.75 196.365 158.835 196.35 158.915 196.35C159.065 196.35 159.19 196.405 159.29 196.515C159.39 196.625 159.44 196.765 159.44 196.935V206.55C159.44 206.74 159.385 206.89 159.275 207C159.175 207.1 159.035 207.15 158.855 207.15ZM166.926 207.15C166.746 207.15 166.606 207.095 166.506 206.985C166.416 206.875 166.371 206.725 166.371 206.535V204.57H161.241C161.071 204.57 160.936 204.53 160.836 204.45C160.746 204.36 160.701 204.255 160.701 204.135C160.701 204.015 160.746 203.895 160.836 203.775L166.506 196.575C166.626 196.425 166.786 196.35 166.986 196.35C167.126 196.35 167.246 196.395 167.346 196.485C167.446 196.575 167.496 196.69 167.496 196.83V203.625H168.576C168.966 203.625 169.161 203.785 169.161 204.105C169.161 204.255 169.106 204.37 168.996 204.45C168.896 204.53 168.756 204.57 168.576 204.57H167.496V206.535C167.496 206.725 167.441 206.875 167.331 206.985C167.231 207.095 167.096 207.15 166.926 207.15ZM166.401 203.625V198.285L162.216 203.625H166.401Z" fill="#3D2C00"/>
<path d="M210.855 207.15C210.685 207.15 210.55 207.1 210.45 207C210.35 206.89 210.3 206.74 210.3 206.55V197.64L208.425 198.36C208.335 198.4 208.235 198.42 208.125 198.42C207.885 198.42 207.72 198.32 207.63 198.12C207.6 198.04 207.585 197.965 207.585 197.895C207.585 197.655 207.715 197.49 207.975 197.4L210.66 196.395C210.75 196.365 210.835 196.35 210.915 196.35C211.065 196.35 211.19 196.405 211.29 196.515C211.39 196.625 211.44 196.765 211.44 196.935V206.55C211.44 206.74 211.385 206.89 211.275 207C211.175 207.1 211.035 207.15 210.855 207.15ZM216.916 207.15C216.116 207.15 215.381 207 214.711 206.7C214.041 206.4 213.476 205.97 213.016 205.41C212.916 205.28 212.866 205.155 212.866 205.035C212.866 204.875 212.941 204.745 213.091 204.645C213.181 204.585 213.286 204.555 213.406 204.555C213.606 204.555 213.756 204.63 213.856 204.78C214.196 205.25 214.631 205.605 215.161 205.845C215.701 206.075 216.281 206.19 216.901 206.19C217.861 206.19 218.606 205.935 219.136 205.425C219.676 204.915 219.946 204.19 219.946 203.25C219.946 202.4 219.686 201.745 219.166 201.285C218.646 200.815 217.956 200.58 217.096 200.58C216.596 200.58 216.126 200.67 215.686 200.85C215.256 201.03 214.906 201.275 214.636 201.585C214.386 201.865 214.151 202.005 213.931 202.005C213.731 202.005 213.571 201.95 213.451 201.84C213.331 201.72 213.286 201.57 213.316 201.39L213.901 197.475C213.951 197.175 214.081 196.94 214.291 196.77C214.511 196.59 214.801 196.5 215.161 196.5H220.006C220.396 196.5 220.591 196.66 220.591 196.98C220.591 197.13 220.536 197.245 220.426 197.325C220.326 197.395 220.186 197.43 220.006 197.43H215.446C215.266 197.43 215.136 197.47 215.056 197.55C214.976 197.63 214.921 197.76 214.891 197.94L214.501 200.565C214.881 200.255 215.306 200.02 215.776 199.86C216.256 199.69 216.751 199.605 217.261 199.605C217.991 199.605 218.646 199.75 219.226 200.04C219.806 200.33 220.256 200.75 220.576 201.3C220.906 201.84 221.071 202.485 221.071 203.235C221.071 204.015 220.906 204.7 220.576 205.29C220.246 205.88 219.766 206.34 219.136 206.67C218.516 206.99 217.776 207.15 216.916 207.15Z" fill="#3D2C00"/>
<path d="M262.855 207.15C262.685 207.15 262.55 207.1 262.45 207C262.35 206.89 262.3 206.74 262.3 206.55V197.64L260.425 198.36C260.335 198.4 260.235 198.42 260.125 198.42C259.885 198.42 259.72 198.32 259.63 198.12C259.6 198.04 259.585 197.965 259.585 197.895C259.585 197.655 259.715 197.49 259.975 197.4L262.66 196.395C262.75 196.365 262.835 196.35 262.915 196.35C263.065 196.35 263.19 196.405 263.29 196.515C263.39 196.625 263.44 196.765 263.44 196.935V206.55C263.44 206.74 263.385 206.89 263.275 207C263.175 207.1 263.035 207.15 262.855 207.15ZM269.216 207.15C267.826 207.15 266.751 206.675 265.991 205.725C265.231 204.775 264.851 203.445 264.851 201.735C264.851 200.625 265.026 199.665 265.376 198.855C265.726 198.045 266.231 197.425 266.891 196.995C267.561 196.565 268.351 196.35 269.261 196.35C270.621 196.35 271.766 196.745 272.696 197.535C272.816 197.635 272.876 197.76 272.876 197.91C272.876 198.07 272.806 198.205 272.666 198.315C272.586 198.395 272.486 198.435 272.366 198.435C272.216 198.435 272.061 198.37 271.901 198.24C271.471 197.91 271.056 197.675 270.656 197.535C270.266 197.385 269.801 197.31 269.261 197.31C268.191 197.31 267.371 197.705 266.801 198.495C266.241 199.285 265.961 200.375 265.961 201.765L265.991 201.78C266.321 201.2 266.761 200.74 267.311 200.4C267.871 200.05 268.531 199.875 269.291 199.875C270.101 199.875 270.791 200.03 271.361 200.34C271.941 200.65 272.381 201.08 272.681 201.63C272.981 202.17 273.131 202.785 273.131 203.475C273.131 204.185 272.971 204.82 272.651 205.38C272.341 205.94 271.891 206.375 271.301 206.685C270.711 206.995 270.016 207.15 269.216 207.15ZM269.216 206.19C270.066 206.19 270.741 205.95 271.241 205.47C271.751 204.98 272.006 204.33 272.006 203.52C272.006 202.7 271.751 202.05 271.241 201.57C270.741 201.09 270.066 200.85 269.216 200.85C268.686 200.85 268.196 200.97 267.746 201.21C267.296 201.45 266.936 201.78 266.666 202.2C266.406 202.62 266.276 203.08 266.276 203.58C266.276 204.09 266.406 204.545 266.666 204.945C266.926 205.335 267.281 205.64 267.731 205.86C268.181 206.08 268.676 206.19 269.216 206.19Z" fill="#3D2C00"/>
<path d="M314.855 207.15C314.685 207.15 314.55 207.1 314.45 207C314.35 206.89 314.3 206.74 314.3 206.55V197.64L312.425 198.36C312.335 198.4 312.235 198.42 312.125 198.42C311.885 198.42 311.72 198.32 311.63 198.12C311.6 198.04 311.585 197.965 311.585 197.895C311.585 197.655 311.715 197.49 311.975 197.4L314.66 196.395C314.75 196.365 314.835 196.35 314.915 196.35C315.065 196.35 315.19 196.405 315.29 196.515C315.39 196.625 315.44 196.765 315.44 196.935V206.55C315.44 206.74 315.385 206.89 315.275 207C315.175 207.1 315.035 207.15 314.855 207.15ZM318.426 207.075C318.256 206.975 318.171 206.84 318.171 206.67C318.171 206.55 318.211 206.42 318.291 206.28L323.091 197.43H317.301C317.121 197.43 316.976 197.395 316.866 197.325C316.766 197.245 316.716 197.13 316.716 196.98C316.716 196.66 316.911 196.5 317.301 196.5H323.691C323.881 196.5 324.026 196.55 324.126 196.65C324.236 196.75 324.291 196.885 324.291 197.055C324.291 197.255 324.236 197.455 324.126 197.655L319.206 206.85C319.096 207.05 318.936 207.15 318.726 207.15C318.606 207.15 318.506 207.125 318.426 207.075Z" fill="black"/>
<path d="M365.855 207.15C365.685 207.15 365.55 207.1 365.45 207C365.35 206.89 365.3 206.74 365.3 206.55V197.64L363.425 198.36C363.335 198.4 363.235 198.42 363.125 198.42C362.885 198.42 362.72 198.32 362.63 198.12C362.6 198.04 362.585 197.965 362.585 197.895C362.585 197.655 362.715 197.49 362.975 197.4L365.66 196.395C365.75 196.365 365.835 196.35 365.915 196.35C366.065 196.35 366.19 196.405 366.29 196.515C366.39 196.625 366.44 196.765 366.44 196.935V206.55C366.44 206.74 366.385 206.89 366.275 207C366.175 207.1 366.035 207.15 365.855 207.15ZM372.036 207.15C371.226 207.15 370.506 207.03 369.876 206.79C369.246 206.54 368.751 206.19 368.391 205.74C368.041 205.28 367.866 204.735 367.866 204.105C367.866 203.495 368.061 202.965 368.451 202.515C368.851 202.065 369.391 201.725 370.071 201.495V201.465C369.491 201.255 369.041 200.955 368.721 200.565C368.411 200.165 368.256 199.705 368.256 199.185C368.256 198.345 368.581 197.665 369.231 197.145C369.881 196.615 370.816 196.35 372.036 196.35C373.256 196.35 374.191 196.61 374.841 197.13C375.491 197.65 375.816 198.335 375.816 199.185C375.816 199.695 375.656 200.15 375.336 200.55C375.026 200.95 374.581 201.255 374.001 201.465V201.495C374.681 201.725 375.216 202.065 375.606 202.515C376.006 202.965 376.206 203.495 376.206 204.105C376.206 204.735 376.026 205.28 375.666 205.74C375.316 206.19 374.826 206.54 374.196 206.79C373.566 207.03 372.846 207.15 372.036 207.15ZM372.036 201.045C372.846 201.045 373.491 200.875 373.971 200.535C374.451 200.195 374.691 199.745 374.691 199.185C374.691 198.605 374.461 198.15 374.001 197.82C373.541 197.48 372.886 197.31 372.036 197.31C371.196 197.31 370.541 197.475 370.071 197.805C369.611 198.135 369.381 198.595 369.381 199.185C369.381 199.745 369.621 200.195 370.101 200.535C370.581 200.875 371.226 201.045 372.036 201.045ZM372.036 206.19C372.976 206.19 373.716 206.01 374.256 205.65C374.806 205.28 375.081 204.765 375.081 204.105C375.081 203.425 374.806 202.9 374.256 202.53C373.716 202.15 372.976 201.96 372.036 201.96C371.106 201.96 370.366 202.15 369.816 202.53C369.266 202.91 368.991 203.435 368.991 204.105C368.991 204.765 369.261 205.28 369.801 205.65C370.351 206.01 371.096 206.19 372.036 206.19Z" fill="#3D2C00"/>
<g style="mix-blend-mode:darken">
<path d="M318.693 221.386C330.122 221.386 339.386 212.122 339.386 200.693C339.386 189.265 330.122 180 318.693 180C307.265 180 298 189.265 298 200.693C298 212.122 307.265 221.386 318.693 221.386Z" fill="#FDEFAE" fill-opacity="0.55"/>
</g>
<g style="mix-blend-mode:plus-darker">
<path d="M110.693 168.386C122.122 168.386 131.386 159.122 131.386 147.693C131.386 136.265 122.122 127 110.693 127C99.2647 127 90 136.265 90 147.693C90 159.122 99.2647 168.386 110.693 168.386Z" fill="#FDEFAE" fill-opacity="0.55"/>
</g>
</g>
<defs>
<filter id="filter0_d_129_106" x="0" y="0" width="438" height="242" filterUnits="userSpaceOnUse" color-interpolation-filters="sRGB">
<feFlood flood-opacity="0" result="BackgroundImageFix"/>
<feColorMatrix in="SourceAlpha" type="matrix" values="0 0 0 0 0 0 0 0 0 0 0 0 0 0 0 0 0 0 127 0" result="hardAlpha"/>
<feOffset dy="1"/>
<feGaussianBlur stdDeviation="2"/>
<feComposite in2="hardAlpha" operator="out"/>
<feColorMatrix type="matrix" values="0 0 0 0 0 0 0 0 0 0 0 0 0 0 0 0 0 0 0.25 0"/>
<feBlend mode="normal" in2="BackgroundImageFix" result="effect1_dropShadow_129_106"/>
<feBlend mode="normal" in="SourceGraphic" in2="effect1_dropShadow_129_106" result="shape"/>
</filter>
</defs>
</svg>
