<svg width="19" height="19" viewBox="0 0 19 19" fill="none" xmlns="http://www.w3.org/2000/svg">
<path d="M2.73077 3.34622C2.40434 3.34622 2.0913 3.4759 1.86048 3.7067C1.62967 3.93752 1.5 4.25057 1.5 4.57699V16.2693C1.5 16.5957 1.62967 16.9088 1.86048 17.1396C2.0913 17.3703 2.40434 17.5001 2.73077 17.5001H16.2692C16.5956 17.5001 16.9087 17.3703 17.1395 17.1396C17.3703 16.9088 17.5 16.5957 17.5 16.2693V4.57699C17.5 4.25057 17.3703 3.93752 17.1395 3.7067C16.9087 3.4759 16.5956 3.34622 16.2692 3.34622H13.8077" stroke="#3D2C00" stroke-width="2" stroke-linecap="round" stroke-linejoin="round"/>
<path d="M1.5 7.65377H17.5" stroke="#3D2C00" stroke-width="2" stroke-linecap="round" stroke-linejoin="round"/>
<path d="M5.19263 1.5V5.19231" stroke="#3D2C00" stroke-width="2" stroke-linecap="round" stroke-linejoin="round"/>
<path d="M13.8074 1.5V5.19231" stroke="#3D2C00" stroke-width="2" stroke-linecap="round" stroke-linejoin="round"/>
<path d="M5.19263 3.34622H11.3465" stroke="#3D2C00" stroke-width="2" stroke-linecap="round" stroke-linejoin="round"/>
</svg>
