<svg width="18" height="19" viewBox="0 0 18 19" fill="none" xmlns="http://www.w3.org/2000/svg">
<path d="M5.92308 16.2692L1 17.5L2.23077 13.8077V2.73077C2.23077 2.40434 2.36044 2.0913 2.59125 1.86048C2.82207 1.62967 3.13511 1.5 3.46154 1.5H15.7692C16.0956 1.5 16.4087 1.62967 16.6395 1.86048C16.8703 2.0913 17 2.40434 17 2.73077V15.0385C17 15.3649 16.8703 15.678 16.6395 15.9087C16.4087 16.1395 16.0956 16.2692 15.7692 16.2692H5.92308Z" fill="white" stroke="#4ABCE1" stroke-width="2" stroke-linecap="round" stroke-linejoin="round"/>
<path d="M5.9231 7.03848H13.3077H5.9231Z" fill="white"/>
<path d="M5.9231 7.03848H13.3077" stroke="#4ABCE1" stroke-width="2" stroke-linecap="round" stroke-linejoin="round"/>
<path d="M5.9231 10.7308H10.8462H5.9231Z" fill="white"/>
<path d="M5.9231 10.7308H10.8462" stroke="#4ABCE1" stroke-width="2" stroke-linecap="round" stroke-linejoin="round"/>
</svg>
