<svg width="22" height="22" viewBox="0 0 22 22" fill="none" xmlns="http://www.w3.org/2000/svg">
<path d="M9.46094 20.2305H12.5378H9.46094Z" fill="white"/>
<path d="M9.46094 20.2305H12.5378" stroke="#3D2C00" stroke-width="2" stroke-linecap="round" stroke-linejoin="round"/>
<path d="M17.1543 8.69193C17.1543 7.05982 16.506 5.49458 15.3519 4.3405C14.1978 3.18644 12.6326 2.53809 11.0005 2.53809C9.36842 2.53809 7.80319 3.18644 6.64912 4.3405C5.49508 5.49458 4.84673 7.05982 4.84673 8.69193V14.0765C4.84673 14.6886 4.60359 15.2756 4.17083 15.7084C3.73806 16.1412 3.15109 16.3842 2.53906 16.3842H19.462C18.85 16.3842 18.2629 16.1412 17.8301 15.7084C17.3974 15.2756 17.1543 14.6886 17.1543 14.0765V8.69193Z" fill="white" stroke="#3D2C00" stroke-width="2" stroke-linecap="round" stroke-linejoin="round"/>
<path d="M1 8.4923C1.00083 7.0279 1.35005 5.58472 2.01882 4.28195C2.68758 2.97918 3.65669 1.85423 4.84611 1" fill="white"/>
<path d="M1 8.4923C1.00083 7.0279 1.35005 5.58472 2.01882 4.28195C2.68758 2.97918 3.65669 1.85423 4.84611 1" stroke="#3D2C00" stroke-width="2" stroke-linecap="round" stroke-linejoin="round"/>
<path d="M21.0004 8.4923C20.9996 7.0279 20.6504 5.58472 19.9816 4.28195C19.3129 2.97918 18.3437 1.85423 17.1543 1" fill="white"/>
<path d="M21.0004 8.4923C20.9996 7.0279 20.6504 5.58472 19.9816 4.28195C19.3129 2.97918 18.3437 1.85423 17.1543 1" stroke="#3D2C00" stroke-width="2" stroke-linecap="round" stroke-linejoin="round"/>
</svg>
