<svg width="22" height="23" viewBox="0 0 22 23" fill="none" xmlns="http://www.w3.org/2000/svg">
<path d="M17.0788 8.84314C19.2446 8.84314 21.0003 7.08739 21.0003 4.92157C21.0003 2.75575 19.2446 1 17.0788 1C14.913 1 13.1572 2.75575 13.1572 4.92157C13.1572 7.08739 14.913 8.84314 17.0788 8.84314Z" fill="#F56F63" stroke="#F56F63" stroke-width="2" stroke-linecap="round" stroke-linejoin="round"/>
<path d="M15.7962 12.7643V15.1699C15.7962 15.7834 16.0399 16.3718 16.4738 16.8057C16.9075 17.2394 17.6413 17.4832 18.2548 17.4832H1C1.61353 17.4832 2.34726 17.2394 2.78109 16.8057C3.21491 16.3718 3.45864 15.7834 3.45864 15.1699L3.45862 9.52136C3.45862 7.88529 4.10855 6.31623 5.26543 5.15935C6.4223 4.00247 7.99136 3.35254 9.62741 3.35254" stroke="#3D2C00" stroke-width="2" stroke-linecap="round" stroke-linejoin="round"/>
<path d="M8.05957 21.3926H11.1968" stroke="#3D2C00" stroke-width="2" stroke-linecap="round" stroke-linejoin="round"/>
</svg>
