<svg width="81" height="19" viewBox="0 0 81 19" fill="none" xmlns="http://www.w3.org/2000/svg">
<path d="M1.85601 18.0971C1.50401 18.0971 1.22401 18.0011 1.01601 17.8091C0.824008 17.6011 0.728008 17.3211 0.728008 16.9691V4.15305C0.728008 3.19305 1.01601 2.44105 1.59201 1.89706C2.16801 1.33705 2.96801 1.05705 3.99201 1.05705H8.04801C10.384 1.05705 12.144 1.54505 13.328 2.52105C14.512 3.49706 15.104 4.94506 15.104 6.86505C15.104 8.68906 14.504 10.0891 13.304 11.0651C12.12 12.0251 10.408 12.5051 8.16801 12.5051H2.98401V16.9691C2.98401 17.3211 2.88001 17.6011 2.67201 17.8091C2.48001 18.0011 2.20801 18.0971 1.85601 18.0971ZM8.16801 10.6811C9.65601 10.6811 10.8 10.3851 11.6 9.79306C12.4 9.18506 12.8 8.20906 12.8 6.86505C12.8 5.47306 12.408 4.46505 11.624 3.84105C10.84 3.20106 9.68801 2.88106 8.16801 2.88106H4.18401C3.81601 2.88106 3.52001 3.00106 3.29601 3.24106C3.08801 3.48105 2.98401 3.80105 2.98401 4.20106V10.6811H8.16801ZM18.3598 18.0971C18.0078 18.0971 17.7278 18.0011 17.5198 17.8091C17.3278 17.6011 17.2318 17.3211 17.2318 16.9691V7.92105C17.2318 5.69705 17.8638 3.96105 19.1278 2.71305C20.3918 1.44905 22.1358 0.817055 24.3598 0.817055C25.8318 0.817055 27.1038 1.10505 28.1758 1.68106C29.2638 2.24105 30.0878 3.05705 30.6478 4.12906C31.2238 5.20106 31.5118 6.46506 31.5118 7.92105V16.9691C31.5118 17.3211 31.4078 17.6011 31.1998 17.8091C30.9918 18.0011 30.7118 18.0971 30.3598 18.0971C30.0238 18.0971 29.7518 18.0011 29.5438 17.8091C29.3358 17.6011 29.2318 17.3211 29.2318 16.9691V12.0731H19.4878V16.9691C19.4878 17.3211 19.3838 17.6011 19.1758 17.8091C18.9838 18.0011 18.7118 18.0971 18.3598 18.0971ZM29.2318 10.2491V7.84906C29.2318 6.18506 28.8158 4.91305 27.9838 4.03305C27.1518 3.13705 25.9438 2.68905 24.3598 2.68905C22.7758 2.68905 21.5678 3.12906 20.7358 4.00906C19.9038 4.87306 19.4878 6.15306 19.4878 7.84906V10.2491H29.2318ZM35.1001 18.0971C34.7481 18.0971 34.4681 18.0011 34.2601 17.8091C34.0681 17.6011 33.9721 17.3211 33.9721 16.9691V7.44106C33.9721 6.08105 34.2601 4.90505 34.8361 3.91305C35.4121 2.92106 36.2361 2.16106 37.3081 1.63305C38.3961 1.08905 39.6761 0.817055 41.1481 0.817055C42.6201 0.817055 43.8921 1.08905 44.9641 1.63305C46.0521 2.16106 46.8841 2.92106 47.4601 3.91305C48.0361 4.90505 48.3241 6.08105 48.3241 7.44106V16.9691C48.3241 17.3211 48.2201 17.6011 48.0121 17.8091C47.8201 18.0011 47.5481 18.0971 47.1961 18.0971C46.8441 18.0971 46.5641 18.0011 46.3561 17.8091C46.1481 17.6011 46.0441 17.3211 46.0441 16.9691V7.36906C46.0441 5.88106 45.6121 4.72905 44.7481 3.91305C43.9001 3.09705 42.7001 2.68905 41.1481 2.68905C39.6121 2.68905 38.4121 3.10505 37.5481 3.93705C36.6841 4.75305 36.2521 5.89705 36.2521 7.36906V16.9691C36.2521 17.3211 36.1481 17.6011 35.9401 17.8091C35.7321 18.0011 35.4521 18.0971 35.1001 18.0971ZM51.9354 18.0971C51.5834 18.0971 51.3034 18.0011 51.0954 17.8091C50.9034 17.6011 50.8074 17.3211 50.8074 16.9691V7.92105C50.8074 5.69705 51.4394 3.96105 52.7034 2.71305C53.9674 1.44905 55.7114 0.817055 57.9354 0.817055C59.4074 0.817055 60.6794 1.10505 61.7514 1.68106C62.8394 2.24105 63.6634 3.05705 64.2234 4.12906C64.7994 5.20106 65.0874 6.46506 65.0874 7.92105V16.9691C65.0874 17.3211 64.9834 17.6011 64.7754 17.8091C64.5674 18.0011 64.2874 18.0971 63.9354 18.0971C63.5994 18.0971 63.3274 18.0011 63.1194 17.8091C62.9114 17.6011 62.8074 17.3211 62.8074 16.9691V12.0731H53.0634V16.9691C53.0634 17.3211 52.9594 17.6011 52.7514 17.8091C52.5594 18.0011 52.2874 18.0971 51.9354 18.0971ZM62.8074 10.2491V7.84906C62.8074 6.18506 62.3914 4.91305 61.5594 4.03305C60.7274 3.13705 59.5194 2.68905 57.9354 2.68905C56.3514 2.68905 55.1434 3.12906 54.3114 4.00906C53.4794 4.87306 53.0634 6.15306 53.0634 7.84906V10.2491H62.8074ZM71.0758 17.8571C70.0038 17.8571 69.1718 17.5771 68.5798 17.0171C68.0038 16.4571 67.7158 15.6811 67.7158 14.6891V1.94505C67.7158 1.59305 67.8118 1.32105 68.0038 1.12906C68.2118 0.921055 68.4918 0.817055 68.8438 0.817055C69.1958 0.817055 69.4758 0.921055 69.6838 1.12906C69.8918 1.32105 69.9958 1.59305 69.9958 1.94505V14.7131C69.9958 15.1131 70.0998 15.4331 70.3078 15.6731C70.5158 15.9131 70.8038 16.0331 71.1718 16.0331H79.0678C79.8198 16.0331 80.1958 16.3371 80.1958 16.9451C80.1958 17.2331 80.0918 17.4571 79.8838 17.6171C79.6918 17.7771 79.4198 17.8571 79.0678 17.8571H71.0758Z" fill="#3D2C00"/>
</svg>
