<svg width="15" height="15" viewBox="0 0 15 15" fill="none" xmlns="http://www.w3.org/2000/svg">
<path id="Vector" d="M5.04785 12.7404L0.547852 14.0004L1.80785 9.50045L10.0479 1.30045C10.141 1.2052 10.2523 1.12952 10.375 1.07786C10.4978 1.02619 10.6297 0.999573 10.7629 0.999573C10.8961 0.999573 11.028 1.02619 11.1508 1.07786C11.2735 1.12952 11.3848 1.2052 11.4779 1.30045L13.2479 3.08045C13.3416 3.17341 13.416 3.28402 13.4668 3.40587C13.5176 3.52773 13.5437 3.65844 13.5437 3.79045C13.5437 3.92246 13.5176 4.05317 13.4668 4.17503C13.416 4.29689 13.3416 4.40749 13.2479 4.50045L5.04785 12.7404Z" stroke="#3D2C00" stroke-linecap="round" stroke-linejoin="round"/>
</svg>
