<svg width="26" height="26" viewBox="0 0 26 26" fill="none" xmlns="http://www.w3.org/2000/svg">
<path d="M13.0002 14.846C15.5492 14.846 17.6155 12.7797 17.6155 10.2307C17.6155 7.68166 15.5492 5.61528 13.0002 5.61528C10.4511 5.61528 8.38477 7.68166 8.38477 10.2307C8.38477 12.7797 10.4511 14.846 13.0002 14.846Z" stroke="#3D2C00" stroke-width="2" stroke-linecap="round" stroke-linejoin="round"/>
<path d="M5.11621 22.0465C5.94004 20.6942 7.09789 19.5765 8.47844 18.8011C9.859 18.0255 11.4158 17.6182 12.9993 17.6182C14.5828 17.6182 16.1396 18.0255 17.5201 18.8011C18.9007 19.5765 20.0585 20.6942 20.8824 22.0465" stroke="#3D2C00" stroke-width="2" stroke-linecap="round" stroke-linejoin="round"/>
<path d="M13 25C19.6275 25 25 19.6275 25 13C25 6.37258 19.6275 1 13 1C6.37258 1 1 6.37258 1 13C1 19.6275 6.37258 25 13 25Z" stroke="#3D2C00" stroke-width="2" stroke-linecap="round" stroke-linejoin="round"/>
</svg>
