<svg width="607" height="505" viewBox="0 0 607 505" fill="none" xmlns="http://www.w3.org/2000/svg">
<path d="M72.9185 138.345L101.19 45.5398L195.697 23.6212L261.933 94.5075L233.662 187.313L139.154 209.231L72.9185 138.345Z" fill="#F56F63" fill-opacity="0.4"/>
<path d="M11.1572 241.422L25.5483 194.181L73.6555 183.024L107.372 219.107L92.9804 266.348L44.8733 277.505L11.1572 241.422Z" fill="#F9E499"/>
<path d="M467.157 127.422L481.548 80.181L529.656 69.0237L563.372 105.107L548.98 152.348L500.873 163.505L467.157 127.422Z" fill="#F56F63" fill-opacity="0.4"/>
<path d="M252.805 346.305L300.278 190.469L458.973 153.664L570.195 272.695L522.722 428.531L364.027 465.336L252.805 346.305Z" fill="#F1BC00" fill-opacity="0.4"/>
<path d="M84.1939 388.017L116.69 281.344L225.319 256.151L301.453 337.629L268.956 444.302L160.327 469.496L84.1939 388.017Z" fill="#4EAF00" fill-opacity="0.4"/>
</svg>
