<svg width="18" height="17" viewBox="0 0 18 17" fill="none" xmlns="http://www.w3.org/2000/svg">
<path d="M2.76604 8.38192V2.59623C2.76604 2.31382 2.87822 2.04297 3.07792 1.84327C3.27762 1.64356 3.54848 1.53137 3.83089 1.53137H14.1858C14.4683 1.53137 14.7391 1.64356 14.9388 1.84327C15.1385 2.04297 15.2506 2.31382 15.2506 2.59623V3.2637M2.76604 11.0591V12.2741L1.70117 15.4686L5.96061 14.4038H14.1858C14.4683 14.4038 14.7391 14.2917 14.9388 14.092C15.1385 13.8923 15.2506 13.6214 15.2506 13.339V5.82281" stroke="#F1BC00" stroke-width="2" stroke-linecap="round" stroke-linejoin="round"/>
<path d="M1 6.7514L2.74861 8.50002L4.49722 6.7514" stroke="#F1BC00" stroke-width="2" stroke-linecap="round" stroke-linejoin="round"/>
<path d="M13.5027 7.55293L15.2513 5.80432L17 7.55293" stroke="#F1BC00" stroke-width="2" stroke-linecap="round" stroke-linejoin="round"/>
</svg>
