<svg width="18" height="19" viewBox="0 0 18 19" fill="none" xmlns="http://www.w3.org/2000/svg">
<path d="M6.53859 7.65385C8.23793 7.65385 9.61552 6.27626 9.61552 4.57692C9.61552 2.87759 8.23793 1.5 6.53859 1.5C4.83926 1.5 3.46167 2.87759 3.46167 4.57692C3.46167 6.27626 4.83926 7.65385 6.53859 7.65385Z" stroke="#4EAF00" stroke-width="2" stroke-linecap="round" stroke-linejoin="round"/>
<path d="M8.38462 16.2692H1V15.602C1.0098 14.6639 1.2572 13.7435 1.7191 12.927C2.18101 12.1105 2.84234 11.4243 3.64132 10.9326C4.44031 10.4409 5.35088 10.1598 6.28798 10.1154C7.22508 10.071 8.15814 10.2649 9 10.6789" stroke="#4EAF00" stroke-width="2" stroke-linecap="round" stroke-linejoin="round"/>
<path d="M13.3079 10.1154V17.5" stroke="#4EAF00" stroke-width="2" stroke-linecap="round" stroke-linejoin="round"/>
<path d="M9.61572 13.8077H17.0003" stroke="#4EAF00" stroke-width="2" stroke-linecap="round" stroke-linejoin="round"/>
</svg>
