<svg width="1280" height="311" viewBox="0 0 1280 311" fill="none" xmlns="http://www.w3.org/2000/svg">
<path d="M683.431 160.592C683.252 160.572 683.118 160.52 683.03 160.434C682.943 160.349 682.905 160.237 682.918 160.098C682.947 159.799 683.145 159.67 683.513 159.711L688.189 160.227C688.557 160.268 688.727 160.438 688.699 160.737C688.686 160.876 688.629 160.977 688.527 161.042C688.425 161.106 688.285 161.128 688.106 161.108L683.431 160.592Z" fill="#4ABCE1"/>
<path d="M706.962 163.194C706.781 163.185 706.645 163.141 706.553 163.062C706.461 162.982 706.417 162.873 706.423 162.734C706.435 162.434 706.627 162.293 706.998 162.311L711.703 162.534C712.074 162.552 712.253 162.711 712.241 163.01C712.235 163.15 712.183 163.254 712.085 163.325C711.986 163.395 711.847 163.426 711.667 163.418L706.962 163.194Z" fill="#4ABCE1"/>
<path d="M732.253 164.364C732.073 164.367 731.934 164.332 731.838 164.258C731.741 164.185 731.692 164.079 731.69 163.94C731.686 163.64 731.87 163.487 732.242 163.481L736.96 163.401C737.331 163.395 737.519 163.541 737.523 163.841C737.525 163.98 737.478 164.088 737.384 164.164C737.289 164.241 737.151 164.281 736.971 164.284L732.253 164.364Z" fill="#4ABCE1"/>
<path d="M759.302 163.781C759.121 163.796 758.981 163.77 758.88 163.703C758.78 163.636 758.725 163.533 758.716 163.395C758.696 163.096 758.871 162.932 759.243 162.901L763.953 162.518C764.325 162.488 764.52 162.622 764.54 162.92C764.55 163.059 764.509 163.169 764.418 163.252C764.328 163.334 764.193 163.383 764.012 163.397L759.302 163.781Z" fill="#4ABCE1"/>
<path d="M782.233 161.926C782.053 161.95 781.912 161.932 781.808 161.871C781.705 161.81 781.645 161.71 781.63 161.572C781.596 161.276 781.764 161.102 782.133 161.051L786.822 160.407C787.192 160.356 787.394 160.479 787.428 160.776C787.443 160.914 787.408 161.026 787.321 161.114C787.235 161.201 787.102 161.257 786.922 161.282L782.233 161.926Z" fill="#4ABCE1"/>
<path d="M807.238 158.466C807.06 158.5 806.918 158.489 806.812 158.433C806.706 158.377 806.642 158.281 806.62 158.144C806.573 157.849 806.734 157.667 807.101 157.597L811.756 156.709C812.123 156.639 812.33 156.751 812.377 157.046C812.399 157.183 812.368 157.297 812.285 157.389C812.203 157.481 812.072 157.544 811.894 157.578L807.238 158.466Z" fill="#4ABCE1"/>
<path d="M834.34 153.183C834.163 153.225 834.021 153.221 833.913 153.17C833.805 153.119 833.737 153.026 833.71 152.89C833.652 152.598 833.804 152.408 834.168 152.321L838.783 151.217C839.147 151.13 839.358 151.233 839.416 151.525C839.444 151.661 839.418 151.776 839.339 151.872C839.26 151.967 839.132 152.036 838.955 152.079L834.34 153.183Z" fill="#4ABCE1"/>
<path d="M858.034 147.471C857.858 147.519 857.716 147.52 857.606 147.473C857.497 147.426 857.427 147.335 857.395 147.2C857.328 146.91 857.475 146.715 857.836 146.615L862.414 145.349C862.775 145.249 862.989 145.344 863.056 145.635C863.087 145.77 863.065 145.886 862.989 145.984C862.913 146.083 862.787 146.156 862.612 146.204L858.034 147.471Z" fill="#4ABCE1"/>
<path d="M881.364 140.995C881.19 141.048 881.048 141.052 880.937 141.008C880.827 140.964 880.755 140.875 880.72 140.741C880.647 140.452 880.79 140.254 881.148 140.144L885.694 138.758C886.053 138.649 886.269 138.739 886.342 139.027C886.376 139.161 886.356 139.278 886.283 139.379C886.209 139.479 886.085 139.555 885.911 139.609L881.364 140.995Z" fill="#4ABCE1"/>
<path d="M904.478 133.935C904.305 133.991 904.163 133.998 904.051 133.956C903.94 133.914 903.867 133.826 903.831 133.693C903.753 133.405 903.893 133.204 904.249 133.089L908.774 131.625C909.13 131.51 909.347 131.596 909.425 131.883C909.461 132.017 909.443 132.134 909.371 132.236C909.298 132.337 909.176 132.416 909.002 132.472L904.478 133.935Z" fill="#4ABCE1"/>
<path d="M930.225 125.573C930.052 125.63 929.91 125.638 929.799 125.597C929.687 125.556 929.613 125.468 929.576 125.335C929.497 125.048 929.635 124.846 929.991 124.728L934.504 123.228C934.86 123.11 935.078 123.194 935.157 123.481C935.194 123.614 935.177 123.732 935.105 123.834C935.034 123.936 934.911 124.016 934.738 124.073L930.225 125.573Z" fill="#4ABCE1"/>
<path d="M953.304 117.886C953.131 117.943 952.989 117.951 952.878 117.91C952.767 117.868 952.693 117.781 952.656 117.647C952.577 117.361 952.715 117.158 953.071 117.041L957.587 115.55C957.943 115.433 958.161 115.518 958.24 115.804C958.277 115.938 958.259 116.055 958.187 116.157C958.116 116.259 957.993 116.339 957.82 116.396L953.304 117.886Z" fill="#4ABCE1"/>
<path d="M976.57 110.187C976.397 110.243 976.254 110.249 976.143 110.206C976.033 110.163 975.959 110.075 975.924 109.942C975.848 109.654 975.988 109.453 976.345 109.34L980.876 107.899C981.233 107.786 981.45 107.873 981.527 108.161C981.562 108.294 981.543 108.412 981.471 108.513C981.398 108.614 981.275 108.692 981.101 108.747L976.57 110.187Z" fill="#4ABCE1"/>
<path d="M1000.16 102.667C999.989 102.719 999.847 102.722 999.737 102.677C999.627 102.632 999.555 102.542 999.522 102.408C999.45 102.119 999.594 101.921 999.953 101.815L1004.51 100.466C1004.87 100.36 1005.08 100.451 1005.16 100.74C1005.19 100.874 1005.17 100.991 1005.09 101.091C1005.02 101.191 1004.89 101.266 1004.72 101.318L1000.16 102.667Z" fill="#4ABCE1"/>
<path d="M1024.24 95.5231C1024.07 95.5697 1023.92 95.569 1023.82 95.5209C1023.71 95.4729 1023.64 95.3813 1023.61 95.2462C1023.54 94.9552 1023.69 94.7618 1024.05 94.6658L1028.64 93.4484C1029 93.3524 1029.22 93.4499 1029.28 93.7409C1029.31 93.876 1029.29 93.9922 1029.21 94.0897C1029.13 94.1871 1029.01 94.2591 1028.83 94.3057L1024.24 95.5231Z" fill="#4ABCE1"/>
<path d="M1048.98 88.9671C1048.81 89.0072 1048.66 89.0012 1048.56 88.9491C1048.45 88.897 1048.38 88.803 1048.36 88.6669C1048.3 88.3738 1048.46 88.186 1048.82 88.1035L1053.45 87.057C1053.81 86.9745 1054.02 87.0798 1054.08 87.3729C1054.1 87.5089 1054.08 87.6242 1054 87.7187C1053.92 87.8132 1053.79 87.8805 1053.61 87.9205L1048.98 88.9671Z" fill="#4ABCE1"/>
<path d="M1074.59 83.2301C1074.41 83.2622 1074.27 83.2499 1074.16 83.193C1074.06 83.1362 1073.99 83.0393 1073.97 82.9022C1073.93 82.6069 1074.09 82.4262 1074.46 82.3601L1079.12 81.5216C1079.49 81.4555 1079.7 81.5701 1079.74 81.8654C1079.76 82.0025 1079.73 82.1164 1079.65 82.2072C1079.56 82.298 1079.43 82.3595 1079.25 82.3916L1074.59 83.2301Z" fill="#4ABCE1"/>
<path d="M1098.23 78.9987C1098.05 79.0222 1097.9 79.0029 1097.8 78.941C1097.7 78.8792 1097.64 78.7792 1097.62 78.6413C1097.59 78.3441 1097.76 78.1715 1098.13 78.1232L1102.82 77.5115C1103.19 77.4633 1103.39 77.5878 1103.43 77.8849C1103.44 78.0229 1103.4 78.1352 1103.32 78.2219C1103.23 78.3086 1103.1 78.3636 1102.92 78.387L1098.23 78.9987Z" fill="#4ABCE1"/>
<path d="M1123.01 75.8152C1122.83 75.8289 1122.69 75.8021 1122.59 75.7347C1122.49 75.6673 1122.43 75.5643 1122.42 75.4256C1122.4 75.127 1122.58 74.9635 1122.95 74.9352L1127.66 74.5762C1128.03 74.5479 1128.23 74.6831 1128.25 74.9817C1128.26 75.1204 1128.22 75.2307 1128.12 75.3126C1128.03 75.3946 1127.9 75.4424 1127.72 75.4561L1123.01 75.8152Z" fill="#4ABCE1"/>
<path d="M1145.92 74.0468C1145.74 74.0508 1145.61 74.0164 1145.51 73.9436C1145.41 73.8708 1145.36 73.7649 1145.36 73.6258C1145.35 73.3262 1145.54 73.1724 1145.91 73.1642L1150.63 73.0609C1151 73.0527 1151.19 73.1984 1151.19 73.4979C1151.2 73.637 1151.15 73.745 1151.05 73.822C1150.96 73.899 1150.82 73.9395 1150.64 73.9434L1145.92 74.0468Z" fill="#4ABCE1"/>
<path d="M1170.25 73.5063C1170.07 73.5 1169.93 73.4576 1169.84 73.3793C1169.74 73.3011 1169.7 73.1923 1169.7 73.0531C1169.71 72.7533 1169.9 72.6099 1170.27 72.6229L1174.98 72.7879C1175.35 72.8009 1175.53 72.9573 1175.53 73.2571C1175.52 73.3963 1175.47 73.5017 1175.37 73.5733C1175.27 73.6449 1175.14 73.6776 1174.95 73.6713L1170.25 73.5063Z" fill="#4ABCE1"/>
<path d="M1196.17 74.4746C1195.99 74.4578 1195.86 74.4074 1195.77 74.3237C1195.68 74.2399 1195.64 74.1285 1195.65 73.9895C1195.67 73.6902 1195.87 73.5579 1196.24 73.5926L1200.93 74.0329C1201.29 74.0676 1201.47 74.2346 1201.44 74.534C1201.43 74.673 1201.38 74.7754 1201.28 74.8413C1201.17 74.9073 1201.03 74.9318 1200.85 74.9149L1196.17 74.4746Z" fill="#4ABCE1"/>
<path d="M1220.36 76.7743C1220.18 76.7476 1220.05 76.6899 1219.97 76.6011C1219.88 76.5124 1219.85 76.3988 1219.86 76.2604C1219.9 75.9621 1220.11 75.8405 1220.47 75.8956L1225.12 76.5939C1225.48 76.6489 1225.65 76.8256 1225.61 77.1238C1225.59 77.2623 1225.53 77.3617 1225.43 77.4221C1225.33 77.4825 1225.18 77.4994 1225.01 77.4726L1220.36 76.7743Z" fill="#4ABCE1"/>
<path d="M1246.29 80.7716C1246.11 80.7352 1245.98 80.6702 1245.9 80.5768C1245.82 80.4834 1245.8 80.3678 1245.82 80.2302C1245.87 79.9337 1246.08 79.8231 1246.44 79.8982L1251.04 80.8509C1251.4 80.926 1251.55 81.1117 1251.5 81.4082C1251.48 81.5458 1251.41 81.6421 1251.31 81.6969C1251.2 81.7517 1251.06 81.7608 1250.88 81.7244L1246.29 80.7716Z" fill="#4ABCE1"/>
<path d="M1270.37 85.832C1270.19 85.7867 1270.07 85.7153 1269.99 85.6178C1269.92 85.5203 1269.89 85.4032 1269.92 85.2666C1269.99 84.9724 1270.2 84.8719 1270.56 84.9651L1275.1 86.1473C1275.45 86.2405 1275.6 86.4342 1275.54 86.7284C1275.51 86.865 1275.44 86.9581 1275.33 87.0077C1275.22 87.0573 1275.08 87.0595 1274.91 87.0142L1270.37 85.832Z" fill="#4ABCE1"/>
<path d="M56.2756 225.48C56.0966 225.46 55.9632 225.407 55.8755 225.322C55.7877 225.237 55.7504 225.125 55.7634 224.986C55.7916 224.687 55.9899 224.558 56.3584 224.598L61.0335 225.115C61.402 225.156 61.5722 225.325 61.5441 225.625C61.5311 225.763 61.4736 225.865 61.3718 225.929C61.27 225.994 61.1296 226.016 60.9506 225.996L56.2756 225.48Z" fill="#4ABCE1"/>
<path d="M79.8065 228.082C79.6264 228.073 79.4901 228.029 79.3979 227.949C79.3056 227.87 79.2623 227.761 79.268 227.622C79.2804 227.322 79.472 227.181 79.8429 227.198L84.5481 227.422C84.9191 227.44 85.0983 227.598 85.086 227.898C85.0802 228.037 85.0281 228.142 84.9297 228.212C84.8312 228.283 84.6919 228.314 84.5117 228.305L79.8065 228.082Z" fill="#4ABCE1"/>
<path d="M105.098 229.251C104.918 229.254 104.779 229.219 104.683 229.146C104.586 229.073 104.537 228.966 104.535 228.827C104.531 228.528 104.715 228.375 105.087 228.369L109.804 228.289C110.176 228.282 110.364 228.429 110.368 228.729C110.37 228.868 110.323 228.975 110.229 229.052C110.134 229.129 109.996 229.168 109.816 229.171L105.098 229.251Z" fill="#4ABCE1"/>
<path d="M132.147 228.669C131.966 228.683 131.826 228.657 131.725 228.59C131.625 228.524 131.57 228.421 131.561 228.282C131.541 227.984 131.716 227.819 132.088 227.789L136.798 227.406C137.17 227.375 137.365 227.51 137.385 227.808C137.394 227.947 137.354 228.057 137.263 228.14C137.173 228.222 137.037 228.271 136.857 228.285L132.147 228.669Z" fill="#4ABCE1"/>
<path d="M155.078 226.813C154.898 226.838 154.757 226.82 154.653 226.759C154.55 226.698 154.49 226.598 154.475 226.46C154.441 226.163 154.609 225.989 154.978 225.939L159.667 225.295C160.037 225.244 160.239 225.367 160.272 225.664C160.288 225.802 160.253 225.914 160.166 226.001C160.08 226.089 159.947 226.145 159.767 226.169L155.078 226.813Z" fill="#4ABCE1"/>
<path d="M180.083 223.353C179.905 223.387 179.763 223.376 179.657 223.321C179.551 223.265 179.487 223.169 179.465 223.032C179.418 222.737 179.578 222.555 179.945 222.485L184.601 221.597C184.968 221.527 185.175 221.639 185.222 221.934C185.244 222.071 185.213 222.185 185.13 222.277C185.048 222.369 184.917 222.431 184.739 222.465L180.083 223.353Z" fill="#4ABCE1"/>
<path d="M207.185 218.07C207.008 218.113 206.866 218.109 206.758 218.058C206.649 218.007 206.582 217.914 206.555 217.778C206.497 217.486 206.649 217.296 207.013 217.209L211.628 216.105C211.992 216.018 212.203 216.12 212.261 216.413C212.289 216.548 212.263 216.664 212.184 216.76C212.105 216.855 211.977 216.924 211.8 216.966L207.185 218.07Z" fill="#4ABCE1"/>
<path d="M230.879 212.358C230.703 212.407 230.561 212.408 230.451 212.361C230.342 212.314 230.271 212.223 230.24 212.088C230.173 211.798 230.32 211.603 230.681 211.503L235.259 210.237C235.62 210.137 235.834 210.232 235.901 210.522C235.932 210.657 235.91 210.774 235.834 210.872C235.757 210.97 235.632 211.044 235.457 211.092L230.879 212.358Z" fill="#4ABCE1"/>
<path d="M254.209 205.882C254.035 205.935 253.893 205.94 253.782 205.896C253.672 205.852 253.6 205.763 253.565 205.629C253.492 205.34 253.634 205.141 253.993 205.032L258.539 203.646C258.898 203.537 259.114 203.626 259.187 203.915C259.221 204.049 259.201 204.166 259.127 204.266C259.054 204.367 258.93 204.443 258.756 204.496L254.209 205.882Z" fill="#4ABCE1"/>
<path d="M277.323 198.823C277.15 198.879 277.008 198.886 276.896 198.844C276.785 198.802 276.712 198.714 276.676 198.58C276.598 198.293 276.738 198.092 277.094 197.976L281.619 196.513C281.975 196.398 282.192 196.484 282.27 196.771C282.306 196.904 282.288 197.022 282.216 197.123C282.143 197.225 282.02 197.304 281.847 197.36L277.323 198.823Z" fill="#4ABCE1"/>
<path d="M303.07 190.46C302.897 190.518 302.755 190.526 302.644 190.485C302.532 190.443 302.458 190.356 302.421 190.223C302.342 189.936 302.48 189.734 302.836 189.615L307.349 188.116C307.705 187.998 307.923 188.082 308.002 188.369C308.039 188.502 308.022 188.62 307.95 188.722C307.878 188.824 307.756 188.904 307.583 188.961L303.07 190.46Z" fill="#4ABCE1"/>
<path d="M326.149 182.774C325.976 182.831 325.834 182.839 325.723 182.797C325.611 182.756 325.537 182.668 325.501 182.535C325.422 182.248 325.56 182.046 325.916 181.929L330.432 180.438C330.788 180.321 331.006 180.405 331.085 180.692C331.122 180.825 331.104 180.943 331.032 181.045C330.961 181.147 330.838 181.226 330.665 181.283L326.149 182.774Z" fill="#4ABCE1"/>
<path d="M349.415 175.075C349.242 175.13 349.099 175.136 348.988 175.094C348.877 175.051 348.804 174.963 348.769 174.829C348.692 174.542 348.833 174.341 349.19 174.227L353.721 172.787C354.078 172.674 354.295 172.761 354.371 173.048C354.407 173.182 354.388 173.299 354.316 173.4C354.243 173.502 354.12 173.58 353.946 173.635L349.415 175.075Z" fill="#4ABCE1"/>
<path d="M373.009 167.555C372.834 167.606 372.692 167.61 372.582 167.565C372.472 167.52 372.4 167.43 372.367 167.296C372.295 167.007 372.439 166.809 372.798 166.703L377.355 165.354C377.714 165.247 377.929 165.339 378.001 165.628C378.034 165.762 378.013 165.879 377.939 165.979C377.864 166.078 377.74 166.154 377.565 166.206L373.009 167.555Z" fill="#4ABCE1"/>
<path d="M397.087 160.411C396.912 160.457 396.769 160.457 396.66 160.409C396.551 160.361 396.481 160.269 396.452 160.134C396.387 159.843 396.536 159.649 396.898 159.554L401.487 158.336C401.849 158.24 402.062 158.338 402.127 158.629C402.157 158.764 402.133 158.88 402.056 158.977C401.979 159.075 401.853 159.147 401.677 159.193L397.087 160.411Z" fill="#4ABCE1"/>
<path d="M421.829 153.855C421.651 153.895 421.509 153.889 421.401 153.837C421.294 153.785 421.227 153.691 421.202 153.555C421.146 153.262 421.301 153.074 421.666 152.991L426.293 151.945C426.658 151.862 426.868 151.967 426.923 152.261C426.948 152.397 426.921 152.512 426.841 152.606C426.761 152.701 426.633 152.768 426.456 152.808L421.829 153.855Z" fill="#4ABCE1"/>
<path d="M447.434 148.118C447.255 148.15 447.113 148.138 447.007 148.081C446.902 148.024 446.839 147.927 446.818 147.79C446.774 147.495 446.936 147.314 447.304 147.248L451.967 146.409C452.335 146.343 452.541 146.458 452.585 146.753C452.605 146.89 452.574 147.004 452.49 147.095C452.407 147.186 452.276 147.247 452.097 147.279L447.434 148.118Z" fill="#4ABCE1"/>
<path d="M471.07 143.886C470.891 143.91 470.749 143.891 470.646 143.829C470.543 143.767 470.484 143.667 470.469 143.529C470.437 143.232 470.606 143.059 470.976 143.011L475.668 142.399C476.038 142.351 476.239 142.475 476.271 142.773C476.286 142.911 476.25 143.023 476.163 143.11C476.076 143.196 475.942 143.251 475.763 143.275L471.07 143.886Z" fill="#4ABCE1"/>
<path d="M495.851 140.703C495.671 140.717 495.531 140.69 495.43 140.622C495.33 140.555 495.276 140.452 495.267 140.313C495.248 140.015 495.425 139.851 495.796 139.823L500.508 139.464C500.879 139.436 501.074 139.571 501.093 139.869C501.102 140.008 501.061 140.118 500.97 140.2C500.879 140.282 500.743 140.33 500.563 140.344L495.851 140.703Z" fill="#4ABCE1"/>
<path d="M518.77 138.935C518.589 138.938 518.45 138.904 518.353 138.831C518.256 138.758 518.207 138.653 518.204 138.513C518.199 138.214 518.383 138.06 518.755 138.052L523.472 137.949C523.844 137.94 524.033 138.086 524.038 138.386C524.04 138.525 523.994 138.633 523.9 138.71C523.805 138.787 523.668 138.827 523.487 138.831L518.77 138.935Z" fill="#4ABCE1"/>
<path d="M543.091 138.394C542.91 138.388 542.774 138.345 542.681 138.267C542.587 138.189 542.543 138.08 542.547 137.941C542.557 137.641 542.747 137.498 543.118 137.511L547.827 137.676C548.198 137.689 548.379 137.845 548.37 138.145C548.366 138.284 548.315 138.389 548.217 138.461C548.119 138.533 547.98 138.565 547.8 138.559L543.091 138.394Z" fill="#4ABCE1"/>
<path d="M569.015 139.362C568.836 139.345 568.702 139.295 568.613 139.211C568.524 139.128 568.485 139.016 568.496 138.877C568.52 138.578 568.717 138.446 569.086 138.48L573.77 138.921C574.14 138.955 574.312 139.122 574.288 139.422C574.277 139.561 574.221 139.663 574.12 139.729C574.019 139.795 573.879 139.819 573.7 139.803L569.015 139.362Z" fill="#4ABCE1"/>
<path d="M593.204 141.662C593.026 141.635 592.895 141.578 592.81 141.489C592.726 141.4 592.692 141.287 592.71 141.148C592.748 140.85 592.95 140.728 593.316 140.783L597.963 141.482C598.33 141.537 598.494 141.713 598.456 142.012C598.438 142.15 598.378 142.249 598.274 142.31C598.17 142.37 598.029 142.387 597.851 142.36L593.204 141.662Z" fill="#4ABCE1"/>
<path d="M619.133 145.659C618.957 145.623 618.829 145.558 618.748 145.464C618.668 145.371 618.64 145.256 618.664 145.118C618.716 144.821 618.923 144.711 619.286 144.786L623.882 145.739C624.244 145.814 624.399 145.999 624.347 146.296C624.323 146.434 624.258 146.53 624.152 146.585C624.046 146.639 623.905 146.649 623.729 146.612L619.133 145.659Z" fill="#4ABCE1"/>
<path d="M643.213 150.72C643.039 150.674 642.914 150.603 642.839 150.506C642.763 150.408 642.74 150.291 642.77 150.154C642.835 149.86 643.046 149.76 643.403 149.853L647.941 151.035C648.299 151.128 648.446 151.322 648.381 151.616C648.351 151.753 648.282 151.846 648.174 151.895C648.066 151.945 647.925 151.947 647.751 151.902L643.213 150.72Z" fill="#4ABCE1"/>
<path d="M665.261 156.457C665.089 156.404 664.968 156.327 664.896 156.226C664.824 156.125 664.806 156.006 664.841 155.871C664.918 155.579 665.132 155.488 665.485 155.597L669.961 156.983C670.314 157.093 670.452 157.293 670.376 157.585C670.341 157.72 670.268 157.81 670.158 157.855C670.049 157.9 669.908 157.896 669.737 157.843L665.261 156.457Z" fill="#4ABCE1"/>
<path d="M12.7345 211.628C12.5614 211.579 12.4375 211.506 12.3631 211.407C12.2886 211.308 12.2674 211.19 12.2993 211.054C12.3682 210.762 12.581 210.665 12.9375 210.766L17.4609 212.037C17.8175 212.138 17.9613 212.334 17.8925 212.627C17.8605 212.763 17.79 212.854 17.6811 212.902C17.5722 212.949 17.4311 212.949 17.2579 212.9L12.7345 211.628Z" fill="#4ABCE1"/>
<path d="M34.7035 217.799C34.5328 217.742 34.4123 217.663 34.342 217.56C34.2717 217.458 34.2552 217.34 34.2925 217.205C34.3728 216.915 34.5887 216.828 34.9401 216.944L39.3985 218.418C39.75 218.535 39.8856 218.738 39.8052 219.028C39.768 219.162 39.6941 219.251 39.5836 219.294C39.4732 219.336 39.3326 219.329 39.1619 219.273L34.7035 217.799Z" fill="#4ABCE1"/>
<path d="M676.864 280.291C676.579 280.247 676.367 280.15 676.228 279.999C676.1 279.85 676.052 279.67 676.085 279.459C676.158 278.984 676.489 278.792 677.08 278.883L681.777 279.605C682.367 279.695 682.626 279.978 682.553 280.452C682.521 280.663 682.416 280.82 682.238 280.922C682.071 281.026 681.845 281.056 681.56 281.012L676.864 280.291Z" fill="#64B920"/>
<path d="M700.825 283.905C700.539 283.877 700.322 283.791 700.175 283.648C700.04 283.506 699.982 283.329 700.003 283.116C700.051 282.639 700.372 282.429 700.966 282.488L705.695 282.958C706.289 283.017 706.563 283.286 706.515 283.763C706.494 283.976 706.398 284.138 706.226 284.249C706.064 284.362 705.84 284.404 705.554 284.375L700.825 283.905Z" fill="#64B920"/>
<path d="M723.569 286.152C723.282 286.138 723.061 286.063 722.907 285.928C722.764 285.793 722.698 285.619 722.708 285.406C722.73 284.926 723.04 284.701 723.637 284.729L728.384 284.955C728.98 284.983 729.267 285.237 729.244 285.717C729.234 285.93 729.146 286.096 728.98 286.217C728.825 286.337 728.604 286.391 728.316 286.377L723.569 286.152Z" fill="#64B920"/>
<path d="M748.287 287.268C747.999 287.269 747.774 287.206 747.614 287.079C747.464 286.952 747.389 286.781 747.388 286.568C747.386 286.088 747.683 285.847 748.281 285.844L753.033 285.823C753.63 285.821 753.93 286.059 753.932 286.539C753.933 286.753 753.853 286.924 753.694 287.052C753.545 287.181 753.327 287.246 753.039 287.247L748.287 287.268Z" fill="#64B920"/>
<path d="M772.028 287.129C771.74 287.144 771.513 287.092 771.347 286.972C771.191 286.852 771.108 286.686 771.097 286.473C771.072 285.993 771.357 285.738 771.954 285.707L776.699 285.46C777.296 285.429 777.607 285.653 777.632 286.132C777.643 286.345 777.572 286.52 777.419 286.656C777.276 286.792 777.061 286.867 776.774 286.882L772.028 287.129Z" fill="#64B920"/>
<path d="M797.877 285.678C797.59 285.706 797.361 285.664 797.189 285.553C797.028 285.44 796.938 285.277 796.917 285.065C796.87 284.587 797.144 284.319 797.739 284.261L802.468 283.8C803.063 283.742 803.383 283.952 803.43 284.429C803.451 284.642 803.388 284.819 803.241 284.962C803.105 285.104 802.893 285.189 802.607 285.217L797.877 285.678Z" fill="#64B920"/>
<path d="M820.164 283.484C819.879 283.522 819.648 283.488 819.472 283.383C819.307 283.276 819.21 283.117 819.182 282.905C819.118 282.43 819.382 282.152 819.974 282.072L824.684 281.438C825.275 281.359 825.604 281.557 825.668 282.032C825.696 282.244 825.639 282.424 825.498 282.572C825.367 282.719 825.159 282.811 824.873 282.85L820.164 283.484Z" fill="#64B920"/>
<path d="M844.805 280.109C844.521 280.157 844.289 280.131 844.11 280.031C843.942 279.929 843.84 279.773 843.805 279.563C843.726 279.089 843.981 278.803 844.57 278.705L849.257 277.921C849.846 277.822 850.18 278.01 850.259 278.483C850.294 278.693 850.244 278.875 850.107 279.028C849.981 279.178 849.776 279.278 849.492 279.325L844.805 280.109Z" fill="#64B920"/>
<path d="M869.062 275.998C868.779 276.052 868.547 276.032 868.366 275.936C868.195 275.839 868.09 275.685 868.049 275.476C867.959 275.005 868.206 274.712 868.793 274.6L873.459 273.701C874.046 273.588 874.385 273.768 874.475 274.239C874.516 274.448 874.469 274.631 874.336 274.787C874.214 274.941 874.011 275.045 873.729 275.1L869.062 275.998Z" fill="#64B920"/>
<path d="M893.083 271.329C892.801 271.388 892.569 271.372 892.386 271.279C892.213 271.185 892.105 271.033 892.062 270.824C891.963 270.355 892.206 270.058 892.791 269.936L897.441 268.96C898.026 268.838 898.368 269.011 898.466 269.481C898.51 269.69 898.467 269.873 898.336 270.031C898.216 270.187 898.016 270.295 897.734 270.354L893.083 271.329Z" fill="#64B920"/>
<path d="M914.249 266.878C913.968 266.94 913.735 266.925 913.552 266.834C913.378 266.741 913.269 266.59 913.224 266.382C913.121 265.913 913.362 265.615 913.945 265.487L918.588 264.473C919.171 264.345 919.514 264.516 919.617 264.985C919.662 265.194 919.621 265.377 919.492 265.537C919.373 265.693 919.173 265.803 918.892 265.864L914.249 266.878Z" fill="#64B920"/>
<path d="M938.195 261.63C937.913 261.691 937.681 261.677 937.497 261.586C937.324 261.493 937.214 261.343 937.169 261.134C937.066 260.665 937.306 260.367 937.889 260.239L942.531 259.219C943.114 259.091 943.457 259.262 943.56 259.73C943.606 259.939 943.565 260.123 943.436 260.282C943.317 260.439 943.117 260.548 942.836 260.61L938.195 261.63Z" fill="#64B920"/>
<path d="M962.29 256.329C962.008 256.389 961.776 256.373 961.593 256.281C961.42 256.187 961.311 256.036 961.267 255.827C961.167 255.357 961.41 255.061 961.994 254.936L966.642 253.949C967.226 253.825 967.568 253.997 967.668 254.467C967.712 254.676 967.67 254.859 967.54 255.018C967.42 255.174 967.22 255.282 966.938 255.342L962.29 256.329Z" fill="#64B920"/>
<path d="M986.671 251.158C986.388 251.214 986.156 251.195 985.974 251.1C985.803 251.003 985.697 250.85 985.656 250.641C985.563 250.17 985.809 249.877 986.395 249.761L991.057 248.842C991.644 248.726 991.983 248.904 992.076 249.375C992.117 249.584 992.072 249.767 991.939 249.924C991.818 250.078 991.616 250.183 991.333 250.239L986.671 251.158Z" fill="#64B920"/>
<path d="M1008.64 246.817C1008.36 246.867 1008.13 246.843 1007.95 246.744C1007.78 246.644 1007.67 246.489 1007.64 246.279C1007.55 245.806 1007.81 245.518 1008.39 245.414L1013.07 244.591C1013.66 244.488 1014 244.672 1014.08 245.145C1014.12 245.355 1014.07 245.537 1013.93 245.691C1013.81 245.843 1013.61 245.944 1013.32 245.994L1008.64 246.817Z" fill="#64B920"/>
<path d="M1034 242.402C1033.71 242.444 1033.48 242.413 1033.31 242.309C1033.14 242.204 1033.04 242.046 1033.01 241.835C1032.94 241.36 1033.2 241.079 1033.79 240.993L1038.49 240.305C1039.09 240.219 1039.42 240.413 1039.49 240.888C1039.52 241.099 1039.46 241.28 1039.32 241.429C1039.19 241.578 1038.99 241.673 1038.7 241.714L1034 242.402Z" fill="#64B920"/>
<path d="M1057.16 239.043C1056.87 239.075 1056.64 239.036 1056.47 238.927C1056.31 238.816 1056.22 238.655 1056.19 238.443C1056.14 237.966 1056.41 237.694 1057 237.627L1061.72 237.097C1062.32 237.03 1062.64 237.236 1062.7 237.713C1062.72 237.925 1062.66 238.103 1062.51 238.248C1062.38 238.392 1062.17 238.48 1061.88 238.512L1057.16 239.043Z" fill="#64B920"/>
<path d="M1081.14 236.397C1080.85 236.418 1080.62 236.37 1080.45 236.254C1080.29 236.137 1080.21 235.973 1080.19 235.76C1080.16 235.281 1080.44 235.02 1081.03 234.976L1085.77 234.63C1086.37 234.586 1086.68 234.804 1086.72 235.282C1086.73 235.495 1086.67 235.671 1086.52 235.81C1086.38 235.949 1086.16 236.029 1085.88 236.05L1081.14 236.397Z" fill="#64B920"/>
<path d="M1103.02 234.784C1102.73 234.793 1102.5 234.736 1102.34 234.614C1102.18 234.49 1102.1 234.322 1102.1 234.109C1102.08 233.629 1102.37 233.38 1102.97 233.361L1107.72 233.207C1108.32 233.188 1108.62 233.418 1108.64 233.898C1108.64 234.111 1108.57 234.284 1108.41 234.417C1108.27 234.55 1108.05 234.621 1107.77 234.63L1103.02 234.784Z" fill="#64B920"/>
<path d="M1129.09 234.033C1128.8 234.028 1128.58 233.961 1128.42 233.831C1128.27 233.7 1128.2 233.529 1128.2 233.315C1128.21 232.835 1128.51 232.6 1129.11 232.609L1133.86 232.68C1134.46 232.689 1134.75 232.934 1134.75 233.414C1134.74 233.627 1134.66 233.796 1134.5 233.922C1134.35 234.048 1134.13 234.108 1133.84 234.104L1129.09 234.033Z" fill="#64B920"/>
<path d="M1150.03 234.31C1149.74 234.293 1149.52 234.216 1149.37 234.079C1149.23 233.942 1149.16 233.767 1149.17 233.554C1149.2 233.075 1149.51 232.853 1150.11 232.889L1154.85 233.169C1155.45 233.204 1155.73 233.462 1155.71 233.941C1155.69 234.154 1155.6 234.319 1155.44 234.438C1155.28 234.557 1155.06 234.608 1154.77 234.591L1150.03 234.31Z" fill="#64B920"/>
<path d="M1175.51 235.878C1175.22 235.847 1175 235.759 1174.86 235.615C1174.72 235.471 1174.67 235.294 1174.69 235.082C1174.74 234.604 1175.07 234.398 1175.66 234.463L1180.38 234.976C1180.98 235.041 1181.25 235.312 1181.2 235.789C1181.17 236.001 1181.08 236.162 1180.9 236.272C1180.74 236.383 1180.52 236.423 1180.23 236.392L1175.51 235.878Z" fill="#64B920"/>
<path d="M1199.11 238.478C1198.82 238.434 1198.61 238.336 1198.47 238.185C1198.34 238.035 1198.3 237.855 1198.33 237.644C1198.4 237.17 1198.74 236.979 1199.33 237.071L1204.02 237.807C1204.61 237.899 1204.87 238.183 1204.8 238.657C1204.76 238.868 1204.66 239.024 1204.48 239.125C1204.31 239.229 1204.09 239.258 1203.8 239.214L1199.11 238.478Z" fill="#64B920"/>
<path d="M1224.2 242.504C1223.92 242.446 1223.72 242.338 1223.59 242.181C1223.46 242.025 1223.43 241.843 1223.47 241.634C1223.57 241.164 1223.91 240.989 1224.49 241.109L1229.15 242.067C1229.73 242.187 1229.98 242.483 1229.88 242.953C1229.84 243.162 1229.72 243.313 1229.54 243.406C1229.37 243.501 1229.14 243.52 1228.86 243.462L1224.2 242.504Z" fill="#64B920"/>
<path d="M1247.34 247.326C1247.06 247.255 1246.86 247.138 1246.73 246.975C1246.62 246.815 1246.59 246.631 1246.64 246.424C1246.76 245.959 1247.11 245.799 1247.69 245.945L1252.29 247.106C1252.87 247.252 1253.1 247.558 1252.99 248.024C1252.93 248.231 1252.81 248.376 1252.63 248.461C1252.45 248.549 1252.22 248.558 1251.95 248.487L1247.34 247.326Z" fill="#64B920"/>
<path d="M1268.35 252.613C1268.07 252.531 1267.88 252.406 1267.76 252.238C1267.65 252.073 1267.63 251.889 1267.69 251.684C1267.83 251.224 1268.18 251.078 1268.75 251.247L1273.31 252.593C1273.88 252.762 1274.1 253.077 1273.97 253.537C1273.91 253.742 1273.78 253.883 1273.59 253.96C1273.41 254.041 1273.18 254.04 1272.91 253.959L1268.35 252.613Z" fill="#64B920"/>
<path d="M50.0409 307.54C49.8614 307.514 49.7305 307.458 49.6484 307.371C49.5663 307.285 49.5373 307.173 49.5614 307.036C49.6133 306.742 49.8241 306.621 50.1938 306.673L54.8838 307.331C55.2535 307.383 55.4125 307.556 55.3606 307.85C55.3365 307.987 55.2704 308.085 55.1624 308.145C55.0544 308.205 54.9106 308.223 54.731 308.198L50.0409 307.54Z" fill="#4EAF00"/>
<path d="M73.2999 310.852C73.1193 310.837 72.9853 310.788 72.8981 310.705C72.8109 310.623 72.7752 310.513 72.7908 310.375C72.8246 310.078 73.0275 309.946 73.3994 309.978L78.118 310.384C78.49 310.416 78.659 310.58 78.6253 310.877C78.6096 311.015 78.5497 311.116 78.4456 311.182C78.3416 311.248 78.1992 311.274 78.0185 311.258L73.2999 310.852Z" fill="#4EAF00"/>
<path d="M148.188 312.235C148.007 312.247 147.866 312.22 147.765 312.152C147.665 312.085 147.609 311.982 147.6 311.843C147.58 311.545 147.756 311.383 148.128 311.357L152.852 311.02C153.225 310.993 153.421 311.129 153.441 311.427C153.451 311.566 153.41 311.675 153.319 311.757C153.229 311.838 153.093 311.885 152.912 311.898L148.188 312.235Z" fill="#4EAF00"/>
<path d="M173.199 310.43C173.019 310.451 172.877 310.43 172.773 310.367C172.669 310.304 172.608 310.203 172.592 310.066C172.556 309.769 172.724 309.599 173.094 309.556L177.799 309.01C178.17 308.967 178.373 309.094 178.409 309.391C178.425 309.528 178.39 309.64 178.304 309.725C178.217 309.81 178.084 309.863 177.904 309.884L173.199 310.43Z" fill="#4EAF00"/>
<path d="M200.389 307.17C200.21 307.198 200.066 307.183 199.959 307.124C199.852 307.065 199.787 306.968 199.764 306.831C199.715 306.536 199.875 306.36 200.244 306.302L204.923 305.57C205.292 305.512 205.501 305.63 205.55 305.925C205.573 306.062 205.543 306.174 205.46 306.263C205.378 306.351 205.247 306.41 205.068 306.438L200.389 307.17Z" fill="#4EAF00"/>
<path d="M224.218 303.392C224.04 303.426 223.896 303.414 223.787 303.359C223.677 303.304 223.609 303.208 223.581 303.072C223.522 302.779 223.676 302.598 224.043 302.53L228.698 301.657C229.064 301.588 229.278 301.7 229.337 301.992C229.365 302.128 229.339 302.242 229.259 302.332C229.18 302.423 229.051 302.485 228.873 302.519L224.218 303.392Z" fill="#4EAF00"/>
<path d="M247.726 298.952C247.549 298.989 247.405 298.981 247.294 298.928C247.183 298.876 247.113 298.782 247.081 298.646C247.014 298.355 247.164 298.171 247.529 298.094L252.163 297.117C252.528 297.039 252.744 297.146 252.811 297.437C252.842 297.573 252.819 297.686 252.742 297.779C252.665 297.872 252.538 297.937 252.36 297.974L247.726 298.952Z" fill="#4EAF00"/>
<path d="M271.291 294.982C271.114 295.022 270.97 295.016 270.858 294.965C270.747 294.914 270.674 294.821 270.641 294.686C270.569 294.397 270.715 294.21 271.079 294.128L275.698 293.082C276.062 293 276.28 293.104 276.352 293.394C276.386 293.528 276.364 293.642 276.289 293.736C276.213 293.83 276.087 293.897 275.91 293.937L271.291 294.982Z" fill="#4EAF00"/>
<path d="M297.305 289.06C297.129 289.102 296.985 289.097 296.873 289.046C296.76 288.996 296.687 288.904 296.653 288.769C296.579 288.48 296.723 288.293 297.087 288.208L301.699 287.131C302.062 287.046 302.281 287.148 302.355 287.437C302.39 287.572 302.37 287.686 302.295 287.78C302.22 287.874 302.094 287.942 301.917 287.983L297.305 289.06Z" fill="#4EAF00"/>
<path d="M320.625 283.599C320.449 283.639 320.304 283.635 320.192 283.584C320.08 283.533 320.007 283.441 319.973 283.306C319.9 283.017 320.045 282.83 320.408 282.746L325.022 281.676C325.386 281.592 325.604 281.695 325.678 281.984C325.712 282.118 325.692 282.233 325.617 282.327C325.542 282.421 325.416 282.488 325.239 282.529L320.625 283.599Z" fill="#4EAF00"/>
<path d="M343.885 277.17C343.708 277.209 343.564 277.203 343.453 277.151C343.341 277.1 343.269 277.006 343.237 276.872C343.166 276.581 343.313 276.396 343.678 276.315L348.301 275.29C348.666 275.209 348.883 275.314 348.954 275.604C348.986 275.739 348.965 275.853 348.889 275.946C348.813 276.039 348.686 276.106 348.509 276.145L343.885 277.17Z" fill="#4EAF00"/>
<path d="M367.706 271.881C367.529 271.917 367.385 271.908 367.275 271.854C367.164 271.801 367.094 271.706 367.064 271.571C366.999 271.279 367.15 271.096 367.516 271.021L372.157 270.076C372.522 270.002 372.738 270.11 372.802 270.402C372.832 270.537 372.808 270.651 372.73 270.743C372.653 270.835 372.525 270.899 372.347 270.935L367.706 271.881Z" fill="#4EAF00"/>
<path d="M391.985 266.933C391.807 266.965 391.663 266.953 391.555 266.896C391.446 266.84 391.379 266.743 391.353 266.607C391.296 266.314 391.452 266.134 391.819 266.069L396.482 265.238C396.849 265.173 397.061 265.287 397.118 265.58C397.144 265.716 397.117 265.829 397.036 265.92C396.956 266.01 396.826 266.071 396.648 266.102L391.985 266.933Z" fill="#4EAF00"/>
<path d="M416.887 262.512C416.708 262.538 416.565 262.521 416.459 262.461C416.352 262.401 416.289 262.303 416.267 262.166C416.222 261.871 416.384 261.696 416.753 261.642L421.44 260.96C421.809 260.906 422.017 261.027 422.062 261.322C422.083 261.459 422.052 261.571 421.969 261.659C421.885 261.746 421.753 261.803 421.574 261.829L416.887 262.512Z" fill="#4EAF00"/>
<path d="M442.599 258.818C442.419 258.838 442.277 258.815 442.173 258.751C442.07 258.687 442.01 258.586 441.995 258.448C441.963 258.152 442.132 257.983 442.503 257.944L447.212 257.44C447.584 257.401 447.785 257.529 447.818 257.826C447.833 257.964 447.797 258.075 447.71 258.159C447.622 258.244 447.488 258.296 447.308 258.315L442.599 258.818Z" fill="#4EAF00"/>
<path d="M466.273 256.302C466.092 256.314 465.951 256.286 465.851 256.218C465.751 256.149 465.696 256.046 465.688 255.908C465.67 255.609 465.847 255.448 466.219 255.424L470.945 255.115C471.318 255.091 471.513 255.228 471.531 255.526C471.54 255.664 471.499 255.774 471.407 255.854C471.316 255.935 471.18 255.982 470.999 255.993L466.273 256.302Z" fill="#4EAF00"/>
<path d="M491.025 254.714C490.844 254.718 490.705 254.683 490.608 254.61C490.512 254.538 490.463 254.432 490.462 254.293C490.459 253.995 490.645 253.842 491.018 253.834L495.753 253.742C496.126 253.734 496.314 253.88 496.317 254.179C496.318 254.317 496.271 254.425 496.175 254.501C496.08 254.578 495.942 254.618 495.76 254.622L491.025 254.714Z" fill="#4EAF00"/>
<path d="M513.854 254.23C513.673 254.225 513.536 254.184 513.443 254.107C513.35 254.03 513.307 253.922 513.313 253.783C513.327 253.485 513.52 253.341 513.893 253.351L518.628 253.476C519.001 253.486 519.181 253.64 519.167 253.939C519.161 254.077 519.108 254.183 519.009 254.255C518.91 254.327 518.769 254.36 518.588 254.356L513.854 254.23Z" fill="#4EAF00"/>
<path d="M537.91 255.83C537.729 255.817 537.594 255.769 537.506 255.687C537.418 255.606 537.381 255.496 537.395 255.358C537.425 255.061 537.626 254.927 537.998 254.955L542.721 255.31C543.093 255.338 543.264 255.501 543.234 255.798C543.22 255.936 543.162 256.038 543.058 256.106C542.955 256.173 542.813 256.199 542.632 256.186L537.91 255.83Z" fill="#4EAF00"/>
<path d="M563.523 257.765C563.343 257.743 563.211 257.689 563.128 257.603C563.044 257.517 563.013 257.406 563.035 257.269C563.082 256.974 563.291 256.85 563.662 256.896L568.36 257.489C568.731 257.535 568.892 257.706 568.845 258.001C568.823 258.138 568.759 258.237 568.652 258.299C568.545 258.361 568.401 258.38 568.221 258.358L563.523 257.765Z" fill="#4EAF00"/>
<path d="M587.352 260.74C587.173 260.709 587.045 260.648 586.966 260.559C586.887 260.469 586.862 260.357 586.892 260.221C586.955 259.929 587.17 259.816 587.538 259.88L592.203 260.696C592.571 260.76 592.723 260.938 592.66 261.23C592.631 261.365 592.561 261.461 592.451 261.518C592.34 261.574 592.196 261.587 592.017 261.556L587.352 260.74Z" fill="#4EAF00"/>
<path d="M612.822 265.219C612.645 265.179 612.52 265.113 612.446 265.02C612.372 264.927 612.353 264.813 612.39 264.68C612.468 264.391 612.69 264.288 613.054 264.37L617.675 265.408C618.039 265.489 618.182 265.674 618.103 265.963C618.067 266.096 617.992 266.189 617.879 266.24C617.765 266.291 617.62 266.296 617.443 266.257L612.822 265.219Z" fill="#4EAF00"/>
<path d="M636.413 270.512C636.237 270.465 636.115 270.393 636.046 270.297C635.976 270.201 635.963 270.087 636.006 269.955C636.099 269.671 636.326 269.578 636.686 269.676L641.257 270.916C641.617 271.013 641.751 271.204 641.658 271.488C641.615 271.62 641.535 271.709 641.42 271.754C641.304 271.8 641.158 271.799 640.983 271.752L636.413 270.512Z" fill="#4EAF00"/>
<path d="M657.958 276.288C657.785 276.234 657.666 276.157 657.601 276.058C657.536 275.96 657.527 275.845 657.576 275.716C657.682 275.436 657.912 275.352 658.268 275.465L662.786 276.886C663.142 276.998 663.268 277.194 663.162 277.473C663.114 277.603 663.03 277.688 662.912 277.729C662.794 277.77 662.649 277.764 662.476 277.709L657.958 276.288Z" fill="#4EAF00"/>
<path d="M7.50036 293.692C7.32618 293.641 7.20518 293.567 7.13735 293.47C7.06953 293.373 7.05826 293.259 7.10356 293.128C7.20112 292.845 7.42921 292.756 7.78782 292.86L12.3371 294.177C12.6957 294.28 12.8262 294.473 12.7287 294.756C12.6834 294.887 12.6024 294.974 12.4858 295.018C12.3692 295.062 12.2238 295.059 12.0496 295.008L7.50036 293.692Z" fill="#4EAF00"/>
<path d="M28.9457 299.83C28.7737 299.773 28.6559 299.694 28.5923 299.594C28.5287 299.495 28.5224 299.38 28.5735 299.251C28.6834 298.974 28.9155 298.894 29.2697 299.012L33.7628 300.509C34.117 300.627 34.2391 300.825 34.1291 301.103C34.0781 301.232 33.9933 301.316 33.8747 301.355C33.7561 301.394 33.6108 301.385 33.4388 301.327L28.9457 299.83Z" fill="#4EAF00"/>
<path d="M675.691 215.9C675.51 215.883 675.377 215.833 675.291 215.75C675.205 215.666 675.171 215.556 675.19 215.419C675.228 215.122 675.434 214.992 675.805 215.028L680.52 215.48C680.891 215.516 681.058 215.682 681.019 215.978C681.001 216.115 680.939 216.217 680.834 216.282C680.728 216.346 680.585 216.37 680.405 216.353L675.691 215.9Z" fill="#F56F63"/>
<path d="M699.072 218.193C698.891 218.185 698.755 218.142 698.664 218.064C698.574 217.985 698.533 217.877 698.543 217.738C698.563 217.44 698.76 217.299 699.133 217.315L703.865 217.514C704.238 217.53 704.414 217.687 704.394 217.985C704.384 218.123 704.329 218.227 704.227 218.298C704.126 218.368 703.985 218.4 703.804 218.392L699.072 218.193Z" fill="#F56F63"/>
<path d="M724.245 218.26C724.064 218.262 723.925 218.227 723.83 218.154C723.734 218.08 723.687 217.974 723.688 217.835C723.69 217.537 723.877 217.385 724.251 217.38L728.986 217.319C729.36 217.314 729.545 217.461 729.543 217.76C729.542 217.898 729.494 218.006 729.397 218.082C729.301 218.157 729.162 218.197 728.981 218.199L724.245 218.26Z" fill="#F56F63"/>
<path d="M751.129 217.829C750.948 217.842 750.808 217.814 750.708 217.746C750.608 217.678 750.554 217.575 750.546 217.436C750.529 217.138 750.707 216.976 751.079 216.951L755.804 216.63C756.177 216.605 756.372 216.742 756.389 217.04C756.396 217.178 756.355 217.288 756.263 217.369C756.172 217.45 756.035 217.497 755.855 217.509L751.129 217.829Z" fill="#F56F63"/>
<path d="M773.949 216.3C773.769 216.321 773.627 216.299 773.523 216.236C773.42 216.173 773.36 216.073 773.345 215.935C773.311 215.638 773.48 215.468 773.851 215.425L778.556 214.882C778.927 214.84 779.129 214.967 779.162 215.263C779.177 215.401 779.142 215.513 779.055 215.598C778.968 215.683 778.834 215.736 778.654 215.757L773.949 216.3Z" fill="#F56F63"/>
<path d="M798.858 213.403C798.679 213.432 798.536 213.417 798.429 213.359C798.322 213.3 798.257 213.203 798.234 213.066C798.186 212.771 798.346 212.594 798.715 212.535L803.391 211.784C803.759 211.725 803.968 211.843 804.016 212.137C804.039 212.274 804.009 212.387 803.926 212.476C803.844 212.565 803.713 212.624 803.534 212.652L798.858 213.403Z" fill="#F56F63"/>
<path d="M825.879 208.958C825.701 208.994 825.557 208.985 825.447 208.931C825.338 208.877 825.269 208.782 825.24 208.646C825.178 208.354 825.33 208.171 825.696 208.097L830.338 207.161C830.704 207.087 830.918 207.196 830.98 207.488C831.009 207.624 830.984 207.738 830.906 207.83C830.827 207.922 830.699 207.986 830.521 208.022L825.879 208.958Z" fill="#F56F63"/>
<path d="M849.52 204.142C849.343 204.183 849.199 204.178 849.087 204.127C848.976 204.077 848.903 203.984 848.87 203.85C848.798 203.56 848.943 203.373 849.307 203.288L853.919 202.212C854.283 202.127 854.501 202.23 854.573 202.519C854.606 202.654 854.585 202.768 854.51 202.863C854.434 202.957 854.308 203.025 854.132 203.066L849.52 204.142Z" fill="#F56F63"/>
<path d="M872.811 198.678C872.636 198.723 872.492 198.721 872.379 198.673C872.266 198.625 872.191 198.535 872.154 198.401C872.074 198.113 872.215 197.923 872.577 197.83L877.163 196.65C877.525 196.557 877.746 196.655 877.825 196.943C877.862 197.076 877.844 197.191 877.771 197.287C877.698 197.383 877.574 197.453 877.398 197.498L872.811 198.678Z" fill="#F56F63"/>
<path d="M896.18 193.682C896.005 193.729 895.861 193.73 895.747 193.684C895.633 193.637 895.557 193.548 895.517 193.415C895.433 193.128 895.571 192.936 895.931 192.838L900.5 191.591C900.86 191.493 901.082 191.587 901.167 191.873C901.206 192.006 901.19 192.121 901.119 192.218C901.047 192.315 900.924 192.387 900.749 192.435L896.18 193.682Z" fill="#F56F63"/>
<path d="M921.911 186.628C921.736 186.677 921.592 186.679 921.478 186.633C921.363 186.588 921.286 186.499 921.246 186.366C921.159 186.08 921.295 185.887 921.655 185.786L926.215 184.508C926.575 184.408 926.798 184.5 926.885 184.786C926.925 184.919 926.91 185.034 926.839 185.131C926.768 185.228 926.646 185.301 926.471 185.35L921.911 186.628Z" fill="#F56F63"/>
<path d="M944.969 180.152C944.795 180.201 944.65 180.202 944.536 180.156C944.422 180.111 944.345 180.021 944.305 179.889C944.219 179.603 944.356 179.41 944.715 179.31L949.278 178.04C949.638 177.939 949.861 178.032 949.947 178.318C949.987 178.451 949.971 178.566 949.9 178.663C949.83 178.76 949.707 178.833 949.532 178.882L944.969 180.152Z" fill="#F56F63"/>
<path d="M967.926 172.713C967.751 172.76 967.607 172.76 967.493 172.713C967.38 172.666 967.304 172.576 967.265 172.443C967.182 172.156 967.321 171.964 967.681 171.868L972.256 170.641C972.616 170.545 972.838 170.64 972.921 170.927C972.96 171.06 972.943 171.175 972.871 171.271C972.799 171.368 972.676 171.44 972.501 171.487L967.926 172.713Z" fill="#F56F63"/>
<path d="M991.493 166.387C991.317 166.431 991.173 166.428 991.061 166.38C990.948 166.331 990.874 166.239 990.838 166.105C990.761 165.817 990.903 165.627 991.265 165.537L995.86 164.39C996.222 164.299 996.442 164.398 996.52 164.687C996.556 164.821 996.537 164.935 996.463 165.031C996.389 165.126 996.264 165.196 996.088 165.24L991.493 166.387Z" fill="#F56F63"/>
<path d="M1015.53 160.383C1015.36 160.422 1015.21 160.416 1015.1 160.365C1014.99 160.313 1014.92 160.22 1014.89 160.085C1014.82 159.794 1014.96 159.608 1015.33 159.527L1019.95 158.493C1020.32 158.411 1020.53 158.516 1020.6 158.806C1020.63 158.941 1020.61 159.056 1020.53 159.149C1020.46 159.243 1020.33 159.309 1020.15 159.349L1015.53 160.383Z" fill="#F56F63"/>
<path d="M1040.22 154.877C1040.04 154.911 1039.9 154.9 1039.79 154.845C1039.68 154.79 1039.61 154.694 1039.58 154.558C1039.52 154.265 1039.68 154.084 1040.05 154.014L1044.7 153.127C1045.06 153.057 1045.28 153.169 1045.34 153.462C1045.36 153.598 1045.34 153.711 1045.26 153.802C1045.18 153.894 1045.05 153.956 1044.87 153.99L1040.22 154.877Z" fill="#F56F63"/>
<path d="M1065.74 150.063C1065.56 150.09 1065.42 150.074 1065.31 150.014C1065.21 149.955 1065.14 149.857 1065.12 149.72C1065.08 149.424 1065.24 149.249 1065.61 149.193L1070.29 148.484C1070.66 148.428 1070.87 148.548 1070.91 148.843C1070.93 148.98 1070.9 149.093 1070.82 149.181C1070.74 149.269 1070.61 149.327 1070.43 149.354L1065.74 150.063Z" fill="#F56F63"/>
<path d="M1089.28 146.514C1089.1 146.534 1088.96 146.512 1088.86 146.448C1088.76 146.384 1088.7 146.283 1088.68 146.145C1088.65 145.848 1088.82 145.679 1089.19 145.639L1093.9 145.124C1094.27 145.083 1094.47 145.211 1094.5 145.508C1094.52 145.646 1094.48 145.757 1094.39 145.842C1094.31 145.927 1094.17 145.979 1093.99 145.999L1089.28 146.514Z" fill="#F56F63"/>
<path d="M1113.94 143.845C1113.76 143.857 1113.62 143.828 1113.52 143.76C1113.42 143.691 1113.37 143.588 1113.36 143.45C1113.35 143.151 1113.53 142.99 1113.9 142.967L1118.62 142.667C1119 142.643 1119.19 142.781 1119.21 143.079C1119.21 143.217 1119.17 143.327 1119.08 143.408C1118.99 143.488 1118.85 143.534 1118.67 143.546L1113.94 143.845Z" fill="#F56F63"/>
<path d="M1136.73 142.363C1136.55 142.366 1136.41 142.331 1136.31 142.258C1136.22 142.185 1136.17 142.079 1136.17 141.941C1136.17 141.642 1136.36 141.49 1136.73 141.483L1141.47 141.402C1141.84 141.395 1142.03 141.542 1142.02 141.84C1142.02 141.979 1141.98 142.086 1141.88 142.163C1141.78 142.239 1141.65 142.279 1141.46 142.282L1136.73 142.363Z" fill="#F56F63"/>
<path d="M1160.83 142.91C1160.65 142.905 1160.51 142.863 1160.42 142.785C1160.33 142.708 1160.29 142.6 1160.3 142.461C1160.31 142.163 1160.51 142.02 1160.88 142.032L1165.62 142.181C1165.99 142.192 1166.17 142.347 1166.15 142.645C1166.14 142.784 1166.09 142.889 1165.99 142.96C1165.89 143.032 1165.75 143.065 1165.57 143.059L1160.83 142.91Z" fill="#F56F63"/>
<path d="M1186.51 143.724C1186.32 143.709 1186.19 143.661 1186.1 143.579C1186.02 143.497 1185.98 143.387 1186 143.249C1186.03 142.952 1186.23 142.819 1186.61 142.85L1191.33 143.236C1191.7 143.267 1191.87 143.43 1191.83 143.727C1191.82 143.865 1191.76 143.967 1191.65 144.033C1191.55 144.099 1191.41 144.125 1191.23 144.11L1186.51 143.724Z" fill="#F56F63"/>
<path d="M1210.44 145.654C1210.26 145.63 1210.13 145.576 1210.05 145.49C1209.97 145.404 1209.94 145.292 1209.96 145.156C1210.01 144.861 1210.22 144.738 1210.59 144.786L1215.29 145.397C1215.66 145.445 1215.82 145.617 1215.77 145.911C1215.74 146.048 1215.68 146.147 1215.57 146.208C1215.46 146.269 1215.32 146.288 1215.14 146.265L1210.44 145.654Z" fill="#F56F63"/>
<path d="M1236.08 149.015C1235.9 148.983 1235.78 148.922 1235.7 148.832C1235.62 148.743 1235.6 148.63 1235.63 148.495C1235.69 148.204 1235.91 148.091 1236.28 148.157L1240.94 148.991C1241.31 149.057 1241.46 149.236 1241.39 149.527C1241.36 149.662 1241.29 149.758 1241.18 149.814C1241.07 149.869 1240.92 149.881 1240.75 149.849L1236.08 149.015Z" fill="#F56F63"/>
<path d="M1259.88 153.272C1259.71 153.232 1259.58 153.165 1259.51 153.072C1259.43 152.979 1259.42 152.866 1259.45 152.733C1259.53 152.445 1259.75 152.342 1260.12 152.424L1264.74 153.463C1265.1 153.545 1265.25 153.729 1265.17 154.017C1265.13 154.151 1265.05 154.243 1264.94 154.294C1264.83 154.345 1264.68 154.35 1264.5 154.31L1259.88 153.272Z" fill="#F56F63"/>
<path d="M51.6388 269.932C51.4583 269.914 51.3251 269.864 51.2393 269.781C51.1535 269.698 51.1196 269.587 51.1377 269.45C51.1767 269.154 51.382 269.024 51.7536 269.059L56.4679 269.512C56.8396 269.547 57.0059 269.713 56.9669 270.009C56.9489 270.147 56.8872 270.248 56.7819 270.313C56.6766 270.378 56.5337 270.402 56.3531 270.384L51.6388 269.932Z" fill="#F56F63"/>
<path d="M75.0204 272.224C74.8392 272.217 74.7033 272.174 74.6125 272.095C74.5218 272.016 74.4813 271.908 74.4909 271.77C74.5117 271.472 74.7085 271.331 75.0815 271.346L79.8134 271.546C80.1864 271.561 80.3625 271.718 80.3417 272.016C80.3321 272.154 80.2767 272.259 80.1756 272.329C80.0745 272.4 79.9334 272.431 79.7522 272.423L75.0204 272.224Z" fill="#F56F63"/>
<path d="M100.193 272.292C100.012 272.294 99.8736 272.258 99.7781 272.185C99.6825 272.111 99.6352 272.005 99.6361 271.867C99.6379 271.568 99.8255 271.416 100.199 271.412L104.934 271.35C105.308 271.345 105.493 271.492 105.492 271.791C105.491 271.93 105.442 272.037 105.346 272.113C105.249 272.189 105.11 272.228 104.929 272.23L100.193 272.292Z" fill="#F56F63"/>
<path d="M127.078 271.861C126.897 271.873 126.756 271.845 126.656 271.777C126.556 271.709 126.502 271.606 126.494 271.467C126.477 271.169 126.655 271.008 127.027 270.982L131.753 270.662C132.125 270.636 132.32 270.773 132.337 271.071C132.345 271.21 132.303 271.319 132.211 271.4C132.12 271.481 131.984 271.528 131.803 271.54L127.078 271.861Z" fill="#F56F63"/>
<path d="M149.897 270.331C149.717 270.352 149.575 270.331 149.472 270.268C149.368 270.204 149.308 270.104 149.293 269.966C149.26 269.669 149.428 269.499 149.799 269.457L154.504 268.914C154.875 268.871 155.077 268.998 155.11 269.295C155.126 269.433 155.09 269.544 155.003 269.629C154.916 269.715 154.782 269.768 154.602 269.788L149.897 270.331Z" fill="#F56F63"/>
<path d="M174.806 267.435C174.627 267.464 174.484 267.449 174.377 267.39C174.27 267.332 174.205 267.234 174.183 267.097C174.134 266.803 174.294 266.626 174.663 266.567L179.339 265.815C179.708 265.756 179.916 265.874 179.965 266.169C179.987 266.305 179.957 266.418 179.874 266.507C179.792 266.596 179.661 266.655 179.482 266.684L174.806 267.435Z" fill="#F56F63"/>
<path d="M201.827 262.99C201.649 263.025 201.505 263.016 201.396 262.962C201.286 262.908 201.217 262.813 201.188 262.678C201.126 262.386 201.278 262.203 201.644 262.129L206.286 261.192C206.652 261.119 206.866 261.228 206.928 261.52C206.957 261.655 206.932 261.769 206.854 261.861C206.775 261.953 206.647 262.017 206.469 262.053L201.827 262.99Z" fill="#F56F63"/>
<path d="M225.468 258.173C225.291 258.214 225.147 258.209 225.036 258.159C224.924 258.108 224.852 258.016 224.818 257.881C224.746 257.591 224.892 257.404 225.255 257.319L229.867 256.243C230.231 256.158 230.449 256.261 230.521 256.551C230.554 256.685 230.534 256.8 230.458 256.894C230.383 256.988 230.257 257.056 230.08 257.097L225.468 258.173Z" fill="#F56F63"/>
<path d="M248.76 252.709C248.584 252.754 248.44 252.753 248.327 252.705C248.214 252.657 248.139 252.566 248.102 252.432C248.022 252.144 248.163 251.954 248.525 251.861L253.112 250.682C253.473 250.589 253.694 250.686 253.774 250.974C253.811 251.108 253.793 251.222 253.72 251.318C253.646 251.414 253.522 251.485 253.346 251.53L248.76 252.709Z" fill="#F56F63"/>
<path d="M272.128 247.713C271.953 247.761 271.809 247.761 271.695 247.715C271.581 247.669 271.505 247.579 271.466 247.446C271.381 247.16 271.519 246.967 271.879 246.869L276.448 245.623C276.808 245.524 277.031 245.618 277.115 245.905C277.154 246.038 277.138 246.153 277.067 246.25C276.995 246.347 276.872 246.419 276.697 246.467L272.128 247.713Z" fill="#F56F63"/>
<path d="M297.859 240.66C297.684 240.708 297.54 240.71 297.426 240.665C297.312 240.619 297.234 240.53 297.194 240.397C297.107 240.112 297.244 239.918 297.603 239.818L302.164 238.54C302.523 238.439 302.746 238.532 302.833 238.817C302.873 238.95 302.858 239.065 302.787 239.162C302.717 239.26 302.594 239.333 302.419 239.382L297.859 240.66Z" fill="#F56F63"/>
<path d="M320.918 234.183C320.743 234.232 320.599 234.233 320.485 234.188C320.371 234.142 320.294 234.053 320.253 233.92C320.167 233.634 320.304 233.441 320.664 233.341L325.226 232.071C325.586 231.971 325.809 232.064 325.895 232.35C325.935 232.482 325.92 232.597 325.849 232.695C325.778 232.792 325.655 232.865 325.48 232.913L320.918 234.183Z" fill="#F56F63"/>
<path d="M343.874 226.744C343.699 226.791 343.555 226.791 343.441 226.744C343.328 226.698 343.252 226.608 343.213 226.474C343.13 226.187 343.269 225.996 343.63 225.899L348.204 224.673C348.565 224.576 348.786 224.671 348.87 224.958C348.908 225.091 348.891 225.206 348.819 225.303C348.747 225.399 348.624 225.471 348.449 225.518L343.874 226.744Z" fill="#F56F63"/>
<path d="M367.441 220.418C367.266 220.462 367.121 220.46 367.009 220.411C366.896 220.362 366.822 220.271 366.786 220.137C366.709 219.848 366.851 219.659 367.214 219.568L371.808 218.421C372.171 218.331 372.39 218.43 372.468 218.718C372.504 218.852 372.485 218.967 372.411 219.062C372.337 219.157 372.212 219.227 372.036 219.271L367.441 220.418Z" fill="#F56F63"/>
<path d="M391.481 214.414C391.304 214.454 391.16 214.448 391.049 214.396C390.938 214.344 390.867 214.251 390.834 214.116C390.765 213.826 390.913 213.64 391.277 213.558L395.899 212.524C396.263 212.443 396.48 212.547 396.549 212.838C396.581 212.973 396.559 213.087 396.483 213.181C396.406 213.274 396.28 213.341 396.103 213.38L391.481 214.414Z" fill="#F56F63"/>
<path d="M416.166 208.908C415.988 208.942 415.844 208.932 415.735 208.876C415.626 208.821 415.558 208.726 415.531 208.59C415.473 208.297 415.627 208.115 415.994 208.045L420.646 207.158C421.013 207.089 421.225 207.2 421.284 207.493C421.311 207.629 421.285 207.743 421.205 207.834C421.125 207.925 420.996 207.987 420.818 208.021L416.166 208.908Z" fill="#F56F63"/>
<path d="M441.691 204.094C441.512 204.121 441.369 204.105 441.263 204.046C441.157 203.986 441.093 203.888 441.072 203.751C441.026 203.456 441.188 203.28 441.557 203.224L446.24 202.516C446.609 202.46 446.817 202.579 446.862 202.875C446.883 203.012 446.852 203.124 446.768 203.212C446.685 203.301 446.553 203.358 446.374 203.385L441.691 204.094Z" fill="#F56F63"/>
<path d="M465.233 200.545C465.053 200.565 464.911 200.543 464.808 200.479C464.704 200.415 464.645 200.315 464.631 200.177C464.6 199.88 464.77 199.711 465.141 199.67L469.849 199.155C470.22 199.114 470.421 199.243 470.452 199.54C470.467 199.678 470.43 199.789 470.343 199.874C470.255 199.958 470.121 200.01 469.941 200.03L465.233 200.545Z" fill="#F56F63"/>
<path d="M489.892 197.877C489.711 197.888 489.57 197.86 489.471 197.791C489.371 197.723 489.318 197.619 489.31 197.481C489.295 197.183 489.473 197.022 489.846 196.998L494.573 196.698C494.945 196.675 495.139 196.812 495.155 197.11C495.162 197.249 495.12 197.358 495.028 197.439C494.936 197.52 494.799 197.566 494.618 197.577L489.892 197.877Z" fill="#F56F63"/>
<path d="M512.677 196.394C512.496 196.398 512.358 196.363 512.262 196.29C512.166 196.217 512.118 196.111 512.118 195.972C512.118 195.673 512.305 195.521 512.679 195.514L517.414 195.433C517.787 195.427 517.974 195.573 517.973 195.872C517.973 196.01 517.925 196.118 517.829 196.194C517.733 196.27 517.594 196.31 517.413 196.313L512.677 196.394Z" fill="#F56F63"/>
<path d="M536.78 196.942C536.599 196.936 536.462 196.894 536.371 196.817C536.279 196.739 536.237 196.631 536.245 196.493C536.262 196.195 536.457 196.051 536.831 196.063L541.564 196.212C541.937 196.224 542.115 196.379 542.098 196.677C542.09 196.815 542.036 196.92 541.936 196.992C541.836 197.063 541.695 197.096 541.514 197.09L536.78 196.942Z" fill="#F56F63"/>
<path d="M562.453 197.755C562.273 197.741 562.139 197.692 562.052 197.61C561.964 197.528 561.929 197.418 561.945 197.281C561.979 196.984 562.182 196.851 562.554 196.881L567.274 197.267C567.646 197.298 567.815 197.461 567.781 197.758C567.765 197.896 567.705 197.998 567.601 198.064C567.497 198.131 567.354 198.156 567.174 198.142L562.453 197.755Z" fill="#F56F63"/>
<path d="M586.39 199.685C586.21 199.662 586.079 199.607 585.996 199.521C585.914 199.435 585.884 199.324 585.907 199.187C585.958 198.893 586.168 198.77 586.538 198.818L591.234 199.429C591.605 199.477 591.765 199.648 591.714 199.942C591.691 200.079 591.626 200.178 591.518 200.239C591.41 200.301 591.266 200.319 591.086 200.296L586.39 199.685Z" fill="#F56F63"/>
<path d="M612.032 203.046C611.853 203.014 611.725 202.953 611.647 202.864C611.569 202.774 611.545 202.662 611.576 202.526C611.642 202.235 611.859 202.122 612.226 202.188L616.888 203.023C617.256 203.088 617.406 203.267 617.34 203.558C617.31 203.693 617.239 203.789 617.128 203.845C617.017 203.901 616.872 203.913 616.694 203.881L612.032 203.046Z" fill="#F56F63"/>
<path d="M635.831 207.303C635.654 207.263 635.529 207.197 635.455 207.104C635.381 207.011 635.363 206.898 635.401 206.764C635.481 206.476 635.703 206.373 636.067 206.455L640.688 207.494C641.052 207.576 641.194 207.761 641.114 208.049C641.077 208.182 641.001 208.274 640.887 208.325C640.774 208.376 640.628 208.382 640.451 208.342L635.831 207.303Z" fill="#F56F63"/>
<path d="M657.608 212.131C657.433 212.085 657.311 212.013 657.241 211.918C657.172 211.822 657.159 211.708 657.202 211.576C657.295 211.292 657.522 211.199 657.882 211.295L662.458 212.518C662.818 212.614 662.952 212.804 662.859 213.088C662.816 213.22 662.737 213.309 662.621 213.355C662.505 213.401 662.359 213.401 662.184 213.354L657.608 212.131Z" fill="#F56F63"/>
<path d="M8.53346 257.957C8.35723 257.914 8.23312 257.846 8.16111 257.752C8.08909 257.657 8.07285 257.544 8.11237 257.411C8.1975 257.125 8.42147 257.026 8.78428 257.114L13.3868 258.23C13.7496 258.318 13.8884 258.505 13.8033 258.792C13.7638 258.925 13.6867 259.015 13.5721 259.064C13.4576 259.113 13.3122 259.116 13.1359 259.074L8.53346 257.957Z" fill="#F56F63"/>
<path d="M30.2267 263.152C30.0523 263.102 29.9312 263.029 29.8633 262.932C29.7954 262.835 29.7841 262.721 29.8295 262.59C29.9272 262.308 30.1556 262.218 30.5146 262.32L35.0688 263.62C35.4278 263.722 35.5585 263.914 35.4608 264.197C35.4154 264.328 35.3344 264.415 35.2176 264.459C35.1009 264.504 34.9553 264.501 34.7809 264.451L30.2267 263.152Z" fill="#F56F63"/>
</svg>
