<svg width="26" height="29" viewBox="0 0 26 29" fill="none" xmlns="http://www.w3.org/2000/svg">
<path d="M9.44096 4.5188L10.3056 2.28687C10.4514 1.90898 10.708 1.58394 11.0416 1.35432C11.3753 1.12469 11.7705 1.0012 12.1756 1H13.8244C14.2294 1.0012 14.6247 1.12469 14.9583 1.35432C15.292 1.58394 15.5486 1.90898 15.6944 2.28687L16.559 4.5188L19.4946 6.20782L21.8673 5.84589C22.2624 5.79226 22.6645 5.85729 23.0226 6.03272C23.3806 6.20816 23.6783 6.48607 23.878 6.83115L24.6823 8.23867C24.8884 8.58924 24.9835 8.99406 24.9548 9.39971C24.926 9.80536 24.775 10.1928 24.5214 10.5108L23.0536 12.3808V15.7588L24.5617 17.6288C24.8152 17.9469 24.9662 18.3343 24.995 18.7399C25.0237 19.1456 24.9286 19.5504 24.7225 19.901L23.9182 21.3085C23.7186 21.6535 23.4208 21.9314 23.0629 22.107C22.7047 22.2823 22.3026 22.3474 21.9075 22.2938L19.5348 21.9318L16.5992 23.6208L15.7346 25.8528C15.5888 26.2306 15.3322 26.5557 14.9986 26.7853C14.6649 27.015 14.2696 27.1384 13.8646 27.1396H12.1756C11.7705 27.1384 11.3753 27.015 11.0416 26.7853C10.708 26.5557 10.4514 26.2306 10.3056 25.8528L9.44096 23.6208L6.50528 21.9318L4.13261 22.2938C3.73754 22.3474 3.33543 22.2823 2.9774 22.107C2.61938 21.9314 2.32159 21.6535 2.12187 21.3085L1.31757 19.901C1.11147 19.5504 1.01652 19.1456 1.04523 18.7399C1.07395 18.3343 1.225 17.9469 1.47843 17.6288L2.94627 15.7588V12.3808L1.43821 10.5108C1.18478 10.1928 1.03373 9.80536 1.00502 9.39971C0.976307 8.99406 1.07125 8.58924 1.27735 8.23867L2.08165 6.83115C2.28138 6.48607 2.57917 6.20816 2.93718 6.03272C3.29521 5.85729 3.69732 5.79226 4.09239 5.84589L6.46507 6.20782L9.44096 4.5188ZM8.97849 14.0698C8.97849 14.8652 9.21435 15.6427 9.65623 16.304C10.0981 16.9654 10.7262 17.4808 11.461 17.7852C12.1959 18.0896 13.0044 18.1692 13.7845 18.014C14.5646 17.8589 15.2812 17.4759 15.8436 16.9134C16.406 16.351 16.789 15.6345 16.9442 14.8544C17.0994 14.0743 17.0197 13.2657 16.7153 12.5309C16.411 11.796 15.8955 11.168 15.2342 10.7261C14.5729 10.2842 13.7953 10.0483 13 10.0483C11.9334 10.0483 10.9105 10.472 10.1564 11.2262C9.4022 11.9804 8.97849 13.0033 8.97849 14.0698Z" stroke="#3D2C00" stroke-width="2" stroke-linecap="round" stroke-linejoin="round"/>
</svg>
