<svg width="26" height="25" viewBox="0 0 26 25" fill="none" xmlns="http://www.w3.org/2000/svg">
<path d="M9.30777 10.2308C11.8568 10.2308 13.9232 8.16439 13.9232 5.61538C13.9232 3.06638 11.8568 1 9.30777 1C6.75876 1 4.69238 3.06638 4.69238 5.61538C4.69238 8.16439 6.75876 10.2308 9.30777 10.2308Z" stroke="#3D2C00" stroke-width="2" stroke-linecap="round" stroke-linejoin="round"/>
<path d="M1 23.1538H17.6154V22.153C17.6007 20.7459 17.2296 19.3653 16.5367 18.1406C15.8439 16.9157 14.8519 15.8864 13.6534 15.1489C12.4549 14.4114 11.0891 13.9897 9.68342 13.9231C9.5581 13.9172 9.43283 13.9141 9.30769 13.9138C9.18256 13.9141 9.05728 13.9172 8.93196 13.9231C7.52632 13.9897 6.16046 14.4114 4.96198 15.1489C3.76351 15.8864 2.77151 16.9157 2.07865 18.1406C1.3858 19.3653 1.0147 20.7459 1 22.153V23.1538Z" stroke="#3D2C00" stroke-width="2" stroke-linecap="round" stroke-linejoin="round"/>
<path d="M16.6924 10.2308C19.2414 10.2308 21.3078 8.16439 21.3078 5.61538C21.3078 3.06638 19.2414 1 16.6924 1" stroke="#3D2C00" stroke-width="2" stroke-linecap="round" stroke-linejoin="round"/>
<path d="M21.3076 23.154H24.9999V22.153C24.9851 20.7459 24.614 19.3653 23.9212 18.1406C23.2283 16.9156 22.2364 15.8865 21.0378 15.1489C20.2632 14.6722 19.4184 14.3274 18.5383 14.1252" stroke="#3D2C00" stroke-width="2" stroke-linecap="round" stroke-linejoin="round"/>
</svg>
