<svg width="18" height="18" viewBox="0 0 18 18" fill="none" xmlns="http://www.w3.org/2000/svg">
<path d="M7.90464 1C6.57098 1.18969 5.30679 1.71309 4.22934 2.52165C3.1519 3.3302 2.29607 4.39775 1.74123 5.62527C1.18639 6.85279 0.950503 8.20054 1.05545 9.54355C1.16039 10.8865 1.60276 12.1813 2.34154 13.3078L1 16.9262L5.49233 16.114C6.64748 16.6797 7.92217 16.9581 9.20799 16.9254C10.4938 16.8928 11.7528 16.5503 12.8778 15.9268C14.0028 15.3032 14.9606 14.4172 15.6698 13.3441C16.3789 12.271 16.8183 11.0425 16.9509 9.76312" stroke="#3D2C00" stroke-width="2" stroke-linecap="round" stroke-linejoin="round"/>
<path d="M13.9226 7.15387C15.622 7.15387 16.9995 5.77628 16.9995 4.07694C16.9995 2.37759 15.622 1 13.9226 1C12.2233 1 10.8457 2.37759 10.8457 4.07694C10.8457 5.77628 12.2233 7.15387 13.9226 7.15387Z" fill="#F56F63" stroke="#F56F63" stroke-width="2" stroke-linecap="round" stroke-linejoin="round"/>
</svg>
