<svg width="607" height="505" viewBox="0 0 607 505" fill="none" xmlns="http://www.w3.org/2000/svg">
<path d="M76.8603 142.563C74.4211 139.953 73.5599 136.239 74.601 132.822L99.5076 51.0624C100.549 47.6449 103.334 45.0423 106.814 44.2351L190.073 24.9253C193.553 24.1181 197.2 25.229 199.639 27.8394L257.991 90.2887C260.43 92.8992 261.292 96.6126 260.251 100.03L235.344 181.789C234.303 185.207 231.518 187.809 228.037 188.617L144.778 207.926C141.298 208.734 137.652 207.623 135.212 205.012L76.8603 142.563Z" fill="#FCDBD8"/>
<path d="M15.0991 245.64C12.6599 243.03 11.7987 239.316 12.8398 235.899L23.8659 199.704C24.907 196.286 27.6923 193.684 31.1726 192.876L68.0313 184.328C71.5116 183.521 75.1581 184.632 77.5973 187.242L103.43 214.888C105.869 217.499 106.73 221.212 105.689 224.63L94.663 260.825C93.6219 264.242 90.8366 266.845 87.3563 267.652L50.4976 276.2C47.0173 277.008 43.3708 275.897 40.9316 273.286L15.0991 245.64Z" fill="#F9E499" fill-opacity="0.74"/>
<path d="M471.099 131.64C468.66 129.03 467.799 125.316 468.84 121.898L479.866 85.7037C480.907 82.2861 483.692 79.6835 487.173 78.8764L524.031 70.3279C527.512 69.5207 531.158 70.6316 533.597 73.242L559.43 100.888C561.869 103.499 562.73 107.212 561.689 110.63L550.663 146.825C549.622 150.242 546.837 152.845 543.356 153.652L506.498 162.2C503.017 163.008 499.371 161.897 496.932 159.286L471.099 131.64Z" fill="#FCDBD8"/>
<path d="M257.141 350.945C254.458 348.074 253.511 343.989 254.656 340.23L298.428 196.544C299.573 192.785 302.637 189.922 306.465 189.034L452.786 155.098C456.615 154.21 460.626 155.432 463.309 158.304L565.859 268.054C568.542 270.926 569.489 275.01 568.344 278.77L524.572 422.456C523.427 426.215 520.363 429.078 516.535 429.966L370.214 463.901C366.385 464.789 362.374 463.567 359.691 460.696L257.141 350.945Z" fill="#F1BC00" fill-opacity="0.26"/>
<path d="M88.1357 392.235C85.6965 389.625 84.8353 385.912 85.8764 382.494L115.008 286.867C116.049 283.449 118.834 280.847 122.314 280.04L219.695 257.455C223.175 256.647 226.822 257.758 229.261 260.369L297.511 333.411C299.95 336.021 300.811 339.734 299.77 343.152L270.639 438.779C269.598 442.196 266.813 444.799 263.332 445.606L165.951 468.191C162.471 468.998 158.825 467.888 156.385 465.277L88.1357 392.235Z" fill="#D3EBBF" fill-opacity="0.69"/>
</svg>
